<svg width="146" height="132" viewBox="0 0 146 132" fill="none" xmlns="http://www.w3.org/2000/svg">
<path d="M74 1C111.031 1 141 30.1294 141 66C141 101.871 111.031 131 74 131C36.9686 131 7 101.871 7 66C7 30.1294 36.9686 1 74 1Z" stroke="#858D7E" stroke-width="2"/>
<path d="M74 5C108.824 5 137 32.3403 137 66C137 99.6597 108.824 127 74 127C39.1759 127 11 99.6597 11 66C11 32.3403 39.1759 5 74 5Z" stroke="#858D7E" stroke-width="2"/>
<path d="M2.87749 78.1634C35.0184 154.91 124.913 132.484 141.485 78.1634M2.87749 78.1634C33.4461 100.091 108.274 96.1042 141.987 79.6584M2.87749 78.1634C33.4461 100.091 47.0056 123.015 141.987 79.6584M2.87749 78.1634C33.4461 100.091 89.1905 130.491 141.987 79.6584M2.87749 78.1634C40.477 133.979 108.274 96.1042 141.987 79.6584M2.87749 78.1634C33.4461 100.091 72.1157 143.448 141.987 79.6584M2.87749 78.1634C55.543 152.418 108.274 96.1042 141.987 79.6584M2.87749 78.1634C33.4461 100.091 88.1861 152.418 141.987 79.6584M4.38409 76.6683C31.503 150.425 149.018 115.54 143.494 78.1634M3.73505 80.1568C30.8539 153.913 148.369 119.029 142.845 81.6519M5.76764 80.1568C36.3363 102.084 126.921 103.207 144.877 81.6519" stroke="#858D7E" stroke-width="2"/>
<circle cx="105.5" cy="45.5" r="2.5" fill="#858D7E"/>
<path d="M107 89.5L109 85.8232L111 81.6212V81.6212C111.994 78.4884 112.5 75.2212 112.5 71.9344V71.1162V67.5916C112.5 66.1992 112.394 64.8089 112.182 63.4327L112.08 62.7727C111.696 60.2743 111.721 57.7299 112.155 55.2395L112.435 53.6294C112.478 53.382 112.5 53.1313 112.5 52.8801V52.8801C112.5 51.1329 113.541 49.5537 115.147 48.8655L116 48.5L117.104 47.9368C117.7 47.633 118.326 47.3942 118.973 47.2243L119.31 47.1358C119.768 47.0154 120.212 46.8432 120.632 46.6227L121.943 45.9342C121.98 45.9144 122.022 45.904 122.065 45.904V45.904C122.386 45.904 122.428 45.4389 122.112 45.3818L120 45L118.955 44.7995C117.322 44.4861 115.663 44.3283 114 44.3283V44.3283V44.3283C113.084 44.3283 112.249 43.8012 111.855 42.9739L111.405 42.0281C111.139 41.4681 110.747 40.9771 110.259 40.5932L109.565 40.0464C109.189 39.7501 108.787 39.489 108.363 39.2664L107 38.5505V38.5505C105.686 37.8605 104.225 37.5 102.741 37.5H102.5H99H98.7117C96.9219 37.5 95.1501 37.8571 93.5 38.5505V38.5505L93.0057 38.7582C91.6829 39.3141 90.4893 40.1375 89.5 41.1768V41.1768L87.9822 43.0902C87.3296 43.9128 86.5834 44.6565 85.7586 45.3063L85.4753 45.5296C85.1588 45.7789 84.8606 46.0505 84.5828 46.3423V46.3423C84.1952 46.7494 83.7681 47.117 83.3076 47.4395L83.0692 47.6064C81.7102 48.5582 80.1399 49.1648 78.4939 49.3738V49.3738C77.8329 49.4577 77.1817 49.6061 76.5495 49.8168L74.5 50.5L72 51.5L68 53.2576L65 54.8333L62 56.4091L58 58.5101L55 60.6111L53.5 61.6616L49.5 64.2879L46.5 66.3889L37.5 72M37.5 72H35.1099C32.7125 72 30.3244 71.7031 28 71.1162V71.1162L24 70L20.5 68.5L17.8416 67.1708C17.6143 67.0572 17.3977 66.9233 17.1944 66.7708L15.9391 65.8293C15.6627 65.622 15.5 65.2967 15.5 64.9512V64.9512C15.5 64.5433 15.7261 64.1691 16.0872 63.9794L16.5652 63.7284C16.8508 63.5784 17.1685 63.5 17.4911 63.5H19.1498C19.7153 63.5 20.2794 63.555 20.8342 63.6643L24 64.2879L28 65.5V65.5C30.3243 66.0903 32.713 66.3889 35.1111 66.3889H37.5H44H49.5V66.3889C51.7989 66.3889 54.0634 65.8304 56.0986 64.7614L57 64.2879L61 61.6616M37.5 72L38.2603 72.6336C39.7512 73.876 41.3358 75.0015 43 76V76L45.5 77.5L49.5 79.5L51 80.5L53.5 82L55.5 83L56.6308 83.6785C57.5409 84.2245 58.508 84.6693 59.5148 85.0049V85.0049C60.5021 85.334 61.5218 85.5562 62.5565 85.6677L64 85.8232H68V85.8232C70.6574 85.8232 73.3054 85.5092 75.889 84.8876L77.5 84.5L77.7749 84.4214C79.9204 83.8085 82.0043 82.9979 84 82V82L85.3001 81.3499C86.4302 80.7849 87.4975 80.102 88.4841 79.3127V79.3127C89.1605 78.7716 89.7968 78.1822 90.388 77.5492L91 76.8939L93 74.5L93.6457 73.6391C94.2108 72.8855 94.6393 72.0386 94.9114 71.1369V71.1369C95.139 70.3831 95.2546 69.5999 95.2546 68.8124V68V65.9449C95.2546 65.6488 95.2297 65.3533 95.1801 65.0614V65.0614C95.0613 64.361 94.8023 63.6918 94.4187 63.0939L93.9266 62.3266C93.6427 61.884 93.3229 61.4655 92.9706 61.0751V61.0751C92.3272 60.3624 91.5806 59.7501 90.7558 59.2585L90.3448 59.0135C89.7824 58.6784 89.1952 58.3869 88.5882 58.1417L87 57.5L85 56.4091V56.4091C83.6724 55.8056 82.2715 55.3786 80.833 55.1388L80.5451 55.0909C79.5168 54.9195 78.4761 54.8333 77.4335 54.8333H76.5H73.5H72" stroke="#858D7E" stroke-width="3"/>
<path d="M42 75C45 75 58.5 76.5 71.5 69M47.5 76.5C50.5 76.5 65.5 79.5 78.5 72M40.5 70.5C43.5 70.5 53.5 73.5 66.5 66M51.5 80.5C57 83 83.5 80.5 86 73.5" stroke="#858D7E" stroke-width="2"/>
</svg>
