<?xml version="1.0" encoding="UTF-8"?>
<svg version="1.1" xmlns="http://www.w3.org/2000/svg" width="654" height="361">
<path d="M0 0 C1.18681673 0.9760006 2.35398397 1.97639932 3.5 3 C4.1496875 3.55816406 4.799375 4.11632812 5.46875 4.69140625 C20.24543161 18.30300335 26.35535044 37.08501566 27.15625 56.546875 C27.4806415 59.80553503 28.18231065 62.03907452 29.5 65 C30.49006993 71.93048952 27.82960902 78.03167583 24.5 84 C22.84778967 85.7886652 21.25557651 87.15903119 19.24609375 88.5234375 C17.27886594 90.04125665 17.27886594 90.04125665 15.6796875 92.82421875 C13.2116588 96.42011003 10.60507858 98.78581494 7.1875 101.4375 C6.58228516 101.91050537 5.97707031 102.38351074 5.35351562 102.87084961 C-13.5051135 117.07043023 -36.0912259 119.2815802 -59.04199219 116.71582031 C-63.40019877 115.97319306 -67.41083633 114.65348749 -71.5 113 C-72.64726562 112.54882812 -73.79453125 112.09765625 -74.9765625 111.6328125 C-92.38444214 103.87453355 -106.34310341 88.95312767 -115.63671875 72.5703125 C-116.71170784 69.36966625 -116.28016193 67.24358231 -115.5 64 C-114.015 63.505 -114.015 63.505 -112.5 63 C-112.52320313 62.21238281 -112.54640625 61.42476563 -112.5703125 60.61328125 C-112.89902303 40.77325274 -108.12457238 23.02798672 -94.28540039 8.31689453 C-68.70046351 -17.79284071 -29.66461446 -21.23055741 0 0 Z M-44.5 -11 C-44.5 -10.67 -44.5 -10.34 -44.5 -10 C-39.22 -9.34 -33.94 -8.68 -28.5 -8 C-28.17 -8.66 -27.84 -9.32 -27.5 -10 C-33.16642551 -11.22517308 -38.73708518 -11.09228867 -44.5 -11 Z M-55.5 -10 C-51.5 -9 -51.5 -9 -51.5 -9 Z M-63.5 -7 C-60.035 -7.495 -60.035 -7.495 -56.5 -8 C-59.98581856 -9.2020064 -60.17992344 -9.21338437 -63.5 -7 Z M-68.98046875 -6.00390625 C-69.87378906 -5.52824219 -70.76710938 -5.05257812 -71.6875 -4.5625 C-72.58855469 -4.08941406 -73.48960937 -3.61632812 -74.41796875 -3.12890625 C-75.10503906 -2.75636719 -75.79210937 -2.38382813 -76.5 -2 C-75.51 -1.505 -75.51 -1.505 -74.5 -1 C-71.79620134 -1.99590109 -71.79620134 -1.99590109 -68.875 -3.4375 C-67.87210937 -3.91058594 -66.86921875 -4.38367188 -65.8359375 -4.87109375 C-64.67964844 -5.42990234 -64.67964844 -5.42990234 -63.5 -6 C-66.43355424 -7.33728333 -66.43355424 -7.33728333 -68.98046875 -6.00390625 Z M-87.5 12 C-88.20898438 12.67546875 -88.91796875 13.3509375 -89.6484375 14.046875 C-98.46536301 23.03270713 -104.75863809 36.74057935 -104.72460938 49.36523438 C-104.71236328 50.09033203 -104.70011719 50.81542969 -104.6875 51.5625 C-104.68685547 52.29146484 -104.68621094 53.02042969 -104.68554688 53.77148438 C-104.65198658 57.91431608 -104.60718619 61.98645004 -103.5 66 C-101.95703519 67.4406468 -101.95703519 67.4406468 -99.8125 68.125 C-98.99910156 68.43566406 -98.18570312 68.74632812 -97.34765625 69.06640625 C-91.77553721 70.89320522 -86.17291794 72.51584201 -80.5 74 C-79.40042969 74.29132813 -78.30085938 74.58265625 -77.16796875 74.8828125 C-60.52821405 79.02766071 -42.81152424 78.94700131 -25.8125 77.1875 C-25.09489502 77.11748779 -24.37729004 77.04747559 -23.63793945 76.9753418 C-18.11891043 76.32782909 -11.81409743 75.43416853 -7.84375 71.2578125 C-5.0227489 64.12694862 -5.20633364 57.13412052 -5.47070312 49.57666016 C-5.63912803 44.26050438 -5.43260226 39.99034967 -3.5 35 C-1.375 33.5625 -1.375 33.5625 0.5 33 C0.5 32.67 0.5 32.34 0.5 32 C-0.386875 31.938125 -1.27375 31.87625 -2.1875 31.8125 C-5.5 31 -5.5 31 -7.6875 28.4375 C-11.4450109 25.18099055 -14.00812402 25.34439338 -18.8515625 25.578125 C-23.74945728 26.35832063 -26.5024228 29.05245802 -29.9921875 32.3671875 C-34.21810079 35.88154539 -39.22064979 37.52334784 -44.3125 39.4375 C-51.70428409 42.22011171 -58.10739732 45.32516782 -64.5 50 C-60.32412255 51.39195915 -58.36525224 49.82323219 -54.5 48 C-57.21965299 51.5532631 -61.09059113 52.42132182 -65.1875 53.6875 C-65.88939453 53.91244141 -66.59128906 54.13738281 -67.31445312 54.36914062 C-69.04036743 54.92096357 -70.76985433 55.46159058 -72.5 56 C-72.5 56.33 -72.5 56.66 -72.5 57 C-63.79468814 56.72320153 -56.51422458 55.45302262 -48.5 52 C-55.02777254 59.0586456 -65.49568434 59.00342861 -74.5 60 C-74.5 60.33 -74.5 60.66 -74.5 61 C-63.11562516 61.48867746 -53.8045525 59.80879117 -43.5 55 C-43.5 55.99 -43.5 56.98 -43.5 58 C-44.44875 58.28875 -45.3975 58.5775 -46.375 58.875 C-49.55211578 59.76825109 -49.55211578 59.76825109 -51.5 62 C-45.29011871 61.55643705 -40.89459439 60.08467498 -35.5 57 C-41.69874341 63.89230911 -50.58078464 65.41513342 -59.5 66 C-59.5 66.33 -59.5 66.66 -59.5 67 C-47.28379104 67.46918583 -39.17309235 66.61498759 -29.5 59 C-30.73761173 62.85034761 -33.08715114 64.28357947 -36.58203125 66.12109375 C-42.34660146 68.76269924 -48.26078076 69.4623802 -54.5 70 C-54.5 70.33 -54.5 70.66 -54.5 71 C-43.24947868 71.67503128 -35.32639088 70.97670888 -26.5 63.4375 C-23.51658002 59.80145691 -22.27097583 57.74155665 -22.4375 53 C-22.81994348 50.46454138 -23.10271733 49.35663994 -25.02734375 47.62890625 C-29.9980541 44.75997617 -34.04605013 43.87683925 -39.6875 43.9375 C-40.77417969 43.94652344 -41.86085938 43.95554688 -42.98046875 43.96484375 C-44.22763672 43.98224609 -44.22763672 43.98224609 -45.5 44 C-45.83 43.34 -46.16 42.68 -46.5 42 C-37.33419402 41.66191699 -30.02421112 42.12744498 -22.5 48 C-20.76314947 51.47370107 -21.03884888 55.20190812 -21.5 59 C-25.03881292 65.94655869 -30.41662846 69.56390972 -37.56640625 72.23046875 C-49.63413895 75.39603911 -59.46370853 72.10789271 -69.87890625 66.02734375 C-80.08068769 60.09581618 -89.8689071 57.79484885 -101.5 56 C-101.005 53.03 -101.005 53.03 -100.5 50 C-98.27058595 50.31073024 -96.04147788 50.62365625 -93.8125 50.9375 C-92.57113281 51.11152344 -91.32976562 51.28554687 -90.05078125 51.46484375 C-86.5 52 -86.5 52 -84.10546875 52.56640625 C-76.05818637 53.90560917 -71.23318536 53.0131295 -64.5625 48.3125 C-63.16470946 47.3863745 -61.76497451 46.46317679 -60.36328125 45.54296875 C-59.6976416 45.10001465 -59.03200195 44.65706055 -58.34619141 44.20068359 C-52.6648067 40.50575501 -46.9163564 38.08633464 -40.4375 36.1875 C-34.86910324 34.45050332 -31.59880225 31.78147326 -27.44921875 27.7734375 C-23.36925141 24.06140309 -18.76283812 23.60015825 -13.45703125 23.7421875 C-9.74321959 24.23143215 -6.60405694 25.71621286 -4.15625 28.5625 C-1.91189887 30.5104274 -0.24479914 30.49709097 2.6875 30.6875 C3.58855469 30.75324219 4.48960937 30.81898437 5.41796875 30.88671875 C6.10503906 30.92410156 6.79210937 30.96148437 7.5 31 C5.48434501 33.17209388 4.20539074 34.13828598 1.4375 35.4375 C-1.78733619 37.1528384 -2.27792416 37.69745528 -3.5 41 C-3.72600542 43.4641296 -3.72600542 43.4641296 -3.58984375 46.10546875 C-3.56986328 47.08966797 -3.54988281 48.07386719 -3.52929688 49.08789062 C-3.46867331 51.13490323 -3.40365451 53.18179095 -3.33398438 55.22851562 C-3.21089272 61.75237319 -3.96127099 66.97016323 -6.5 73 C7.07337575 70.84220198 7.07337575 70.84220198 18.5 64 C18.98399327 60.75399138 18.8803761 57.46550572 18.875 54.1875 C18.87411377 53.23931396 18.87322754 52.29112793 18.87231445 51.31420898 C18.70141436 41.12006157 16.16580734 33.07760224 11.5 24 C10.84 24 10.18 24 9.5 24 C9.190625 23.01 9.190625 23.01 8.875 22 C2.72434594 8.58039114 -9.34863497 1.39112236 -22.5 -4 C-46.15097971 -12.24075948 -70.14843347 -5.53044866 -87.5 12 Z M-78.5 -1 C-78.83 -0.34 -79.16 0.32 -79.5 1 C-78.51 0.67 -77.52 0.34 -76.5 0 C-77.16 -0.33 -77.82 -0.66 -78.5 -1 Z M-7.5 -1 C-5.85 0.65 -4.2 2.3 -2.5 4 C-1.84 3.67 -1.18 3.34 -0.5 3 C-3.59327895 0.02324541 -3.59327895 0.02324541 -7.5 -1 Z M-81.5 1 C-81.83 1.66 -82.16 2.32 -82.5 3 C-81.51 2.67 -80.52 2.34 -79.5 2 C-80.16 1.67 -80.82 1.34 -81.5 1 Z M-89.5625 7.625 C-101.48038028 19.59016564 -109.4371173 34.17800826 -109.59765625 51.40234375 C-109.59111188 52.91409376 -109.57933952 54.42582962 -109.5625 55.9375 C-109.55798828 56.71673828 -109.55347656 57.49597656 -109.54882812 58.29882812 C-109.53716908 60.19925268 -109.51923877 62.09963706 -109.5 64 C-108.84 64.33 -108.18 64.66 -107.5 65 C-107.47421875 63.73027344 -107.4484375 62.46054688 -107.421875 61.15234375 C-106.83749895 41.05608281 -102.8835206 25.23385555 -88.61328125 10.25390625 C-86.43576975 7.93149565 -84.45931265 5.50774328 -82.5 3 C-85.81143309 3 -87.25815593 5.37575276 -89.5625 7.625 Z M-0.5 4 C0.16 4.66 0.82 5.32 1.5 6 C1.5 5.34 1.5 4.68 1.5 4 C0.84 4 0.18 4 -0.5 4 Z M19.5 34 C19.83 35.98 20.16 37.96 20.5 40 C21.1814823 38.10820797 21.1814823 38.10820797 21.5 36 C20.84 35.34 20.18 34.68 19.5 34 Z M21.5 40 C21.5 41.65 21.5 43.3 21.5 45 C21.83 45 22.16 45 22.5 45 C22.5 43.35 22.5 41.7 22.5 40 C22.17 40 21.84 40 21.5 40 Z M22.5 45 C22.17 50.94 21.84 56.88 21.5 63 C22.16 63 22.82 63 23.5 63 C24.53863773 56.76817361 24.33288874 51.25307239 23.5 45 C23.17 45 22.84 45 22.5 45 Z M-98.5 52 C-98.17 52.66 -97.84 53.32 -97.5 54 C-94.37374309 54.96041815 -94.37374309 54.96041815 -90.6875 55.6875 C-89.44355469 55.95949219 -88.19960938 56.23148437 -86.91796875 56.51171875 C-83.91522875 56.94068161 -82.2837478 57.04478192 -79.5 56 C-83.781516 54.45136655 -87.87066549 53.51847636 -92.375 52.875 C-93.52742188 52.70742187 -94.67984375 52.53984375 -95.8671875 52.3671875 C-96.73601562 52.24601562 -97.60484375 52.12484375 -98.5 52 Z M-100.5 77 C-99.015 77.99 -99.015 77.99 -97.5 79 C-96.51 78.67 -95.52 78.34 -94.5 78 C-97.47 77.505 -97.47 77.505 -100.5 77 Z M-4.05078125 77.671875 C-5.13568848 77.84041992 -6.2205957 78.00896484 -7.33837891 78.18261719 C-8.48483887 78.36985352 -9.63129883 78.55708984 -10.8125 78.75 C-11.97700684 78.9346582 -13.14151367 79.11931641 -14.34130859 79.30957031 C-22.77322692 80.66626913 -31.15502988 82.18228374 -39.5 84 C-39.5 84.33 -39.5 84.66 -39.5 85 C-23.55055013 85.53296429 -9.55865227 83.61847443 5.5 78 C2.07570023 76.87727876 -0.51312245 77.11288096 -4.05078125 77.671875 Z M-105.5 80 C-104.1910428 83.12197478 -104.1910428 83.12197478 -101.5 85 C-102.8089572 81.87802522 -102.8089572 81.87802522 -105.5 80 Z M-98.5 83 C-97.33794532 85.68725144 -96.30323385 87.55491804 -93.6953125 89 C-89.90442107 90.48774607 -86.61945132 91.38619856 -82.5 91 C-85.24785763 88.86555934 -88.03140548 87.02037559 -91.0625 85.3125 C-91.82691406 84.87550781 -92.59132813 84.43851562 -93.37890625 83.98828125 C-95.56321449 82.78883146 -95.56321449 82.78883146 -98.5 83 Z M-6.875 86.375 C-8.01066406 86.64699219 -9.14632812 86.91898437 -10.31640625 87.19921875 C-13.73787444 88.05983345 -17.12327168 88.97912865 -20.5 90 C-20.5 90.33 -20.5 90.66 -20.5 91 C-11.73739998 90.64234286 -3.84599058 88.61954449 4.5 86 C4.5 85.67 4.5 85.34 4.5 85 C0.48831693 84.83595348 -2.97723614 85.43990701 -6.875 86.375 Z M-72.5 87 C-66.4531133 90.23376984 -60.20174007 90.11757439 -53.5 90 C-59.45296558 86.56559678 -65.83678156 86.86673563 -72.5 87 Z M-6.66796875 91.42578125 C-17.51249975 94.09177271 -28.7211224 93.31425405 -39.8125 93.1875 C-42.11392354 93.17242624 -44.41535662 93.1587426 -46.71679688 93.14648438 C-52.31140888 93.11369184 -57.90565903 93.06370612 -63.5 93 C-63.5 93.33 -63.5 93.66 -63.5 94 C-56.92362299 95.17993207 -50.34589623 95.59699845 -43.6875 96.0625 C-41.83801758 96.19881836 -41.83801758 96.19881836 -39.95117188 96.33789062 C-30.52739091 97.00706461 -21.67169954 97.52309588 -12.375 95.6875 C-11.71113281 95.56955078 -11.04726563 95.45160156 -10.36328125 95.33007812 C-5.71007121 94.44223472 -1.76665568 92.97817672 2.5 91 C-1.06032989 89.74929742 -3.11379948 90.3258788 -6.66796875 91.42578125 Z M-78.5 96 C-78.17 96.66 -77.84 97.32 -77.5 98 C-76.18 97.67 -74.86 97.34 -73.5 97 C-75.15 96.67 -76.8 96.34 -78.5 96 Z M-63.5 98 C-60.3821824 101.1178176 -56.81998456 100.54458051 -52.5625 100.75 C-51.73814453 100.80542969 -50.91378906 100.86085938 -50.06445312 100.91796875 C-48.87432617 100.98177734 -48.87432617 100.98177734 -47.66015625 101.046875 C-46.57166382 101.10633301 -46.57166382 101.10633301 -45.46118164 101.16699219 C-43.17419256 101.13098385 -43.17419256 101.13098385 -40.5 99 C-42.95275141 97.7736243 -44.5505781 97.88584686 -47.2890625 97.90234375 C-48.70058594 97.90717773 -48.70058594 97.90717773 -50.140625 97.91210938 C-51.12546875 97.92048828 -52.1103125 97.92886719 -53.125 97.9375 C-54.61386719 97.94426758 -54.61386719 97.94426758 -56.1328125 97.95117188 C-58.5886016 97.96297855 -61.04427104 97.979446 -63.5 98 Z M-7.5 100 C-6.51 100.33 -5.52 100.66 -4.5 101 C-3.51 100.01 -2.52 99.02 -1.5 98 C-3.96278801 98 -5.35224119 98.85452863 -7.5 100 Z M-69.5 101 C-68.84 101.66 -68.18 102.32 -67.5 103 C-65.39179203 102.6814823 -65.39179203 102.6814823 -63.5 102 C-66.47 101.505 -66.47 101.505 -69.5 101 Z M-63.5 103 C-63.5 103.33 -63.5 103.66 -63.5 104 C-61.19 104 -58.88 104 -56.5 104 C-56.5 103.67 -56.5 103.34 -56.5 103 C-58.81 103 -61.12 103 -63.5 103 Z M-20.5 105 C-18.52 105 -16.54 105 -14.5 105 C-14.17 104.34 -13.84 103.68 -13.5 103 C-16.60551666 103 -17.85261084 103.5393715 -20.5 105 Z M-36.875 106 C-37.80183594 106.09539062 -38.72867188 106.19078125 -39.68359375 106.2890625 C-41.95602415 106.52333368 -44.22812782 106.76038599 -46.5 107 C-46.5 107.33 -46.5 107.66 -46.5 108 C-43.66640156 108.05449228 -40.83387515 108.09390733 -38 108.125 C-36.81277344 108.15013672 -36.81277344 108.15013672 -35.6015625 108.17578125 C-30.22001921 108.21989226 -25.67000073 107.50594058 -20.5 106 C-20.5 105.67 -20.5 105.34 -20.5 105 C-26.01529391 104.85341412 -31.3997742 105.42201611 -36.875 106 Z M-19.6875 107.8125 C-20.42419922 107.99103516 -21.16089844 108.16957031 -21.91992188 108.35351562 C-23.79917038 108.83240416 -25.65283665 109.40932517 -27.5 110 C-27.83 110.66 -28.16 111.32 -28.5 112 C-20.63950828 112.42875409 -14.46191434 110.60639707 -7.5 107 C-11.86228054 105.65044784 -15.38158443 106.68339325 -19.6875 107.8125 Z M-52.5 113 C-52.5 113.33 -52.5 113.66 -52.5 114 C-50.85 114 -49.2 114 -47.5 114 C-47.5 113.67 -47.5 113.34 -47.5 113 C-49.15 113 -50.8 113 -52.5 113 Z " fill="#D1CAB6" transform="translate(369.5,92)"/>
<path d="M0 0 C0.4434375 0.5053125 0.886875 1.010625 1.34375 1.53125 C3.53125034 3.4711088 5.32665675 3.70450049 8.1875 4.1875 C9.08855469 4.34605469 9.98960937 4.50460938 10.91796875 4.66796875 C11.60503906 4.77753906 12.29210937 4.88710937 13 5 C12 8 12 8 10.1875 9.0625 C8.72916667 9.6875 7.27083333 10.3125 5.8125 10.9375 C3.65604893 11.93434552 3.65604893 11.93434552 3 15 C2.96382069 16.68066123 2.98547252 18.3629017 3.04296875 20.04296875 C3.07487305 21.53086914 3.07487305 21.53086914 3.10742188 23.04882812 C3.16031785 25.12209224 3.22519675 27.19508929 3.30273438 29.26757812 C3.41797593 35.87902893 2.62367827 40.42968211 -1 46 C-1.53625 46.825 -2.0725 47.65 -2.625 48.5 C-3.07875 48.995 -3.5325 49.49 -4 50 C-4.66 50 -5.32 50 -6 50 C-5.5978125 49.01 -5.5978125 49.01 -5.1875 48 C-4.795625 47.01 -4.40375 46.02 -4 45 C-3.48050781 43.83597656 -2.96101563 42.67195313 -2.42578125 41.47265625 C-0.54411379 36.44530043 -0.77310754 31.73543888 -1 26.4375 C-1.28279626 19.80592777 -1.3324072 14.87028213 2 9 C2.99 8.34 3.98 7.68 5 7 C4.0925 6.7525 3.185 6.505 2.25 6.25 C-1 5 -1 5 -2.6875 2.875 C-6.07780978 0.12610018 -9.05782543 0.44927216 -13.31640625 0.61328125 C-18.24417482 1.32339637 -20.98741597 4.03525458 -24.48046875 7.36328125 C-29.50890874 11.54734467 -35.89920136 13.33617239 -41.9453125 15.60546875 C-47.50213655 17.76309117 -51.68469965 19.85964426 -56 24 C-55.401875 23.67 -54.80375 23.34 -54.1875 23 C-52 22 -52 22 -49 22 C-50 25 -50 25 -52.109375 26.1328125 C-52.98078125 26.46023437 -53.8521875 26.78765625 -54.75 27.125 C-55.61109375 27.45757812 -56.4721875 27.79015625 -57.359375 28.1328125 C-59.89699457 28.96617277 -62.37209246 29.53680766 -65 30 C-58.05051784 29.62953128 -52.43198784 28.64170929 -46 26 C-45.01 26 -44.02 26 -43 26 C-44 29 -44 29 -46.0390625 30.1328125 C-51.06631941 32.06169959 -55.62667696 33.53275452 -61 34 C-54.43827677 33.72077773 -49.12534646 32.54449816 -43.12890625 29.83984375 C-41 29 -41 29 -38 29 C-38 29.99 -38 30.98 -38 32 C-39.98 32.99 -41.96 33.98 -44 35 C-38.19217364 33.73532894 -38.19217364 33.73532894 -33 31 C-32.01 31 -31.02 31 -30 31 C-31.02062586 33.7505002 -31.65347534 34.81276969 -34.27734375 36.23046875 C-35.15519531 36.54628906 -36.03304687 36.86210937 -36.9375 37.1875 C-37.81277344 37.51105469 -38.68804687 37.83460938 -39.58984375 38.16796875 C-41.38959433 38.78927649 -43.19372956 39.39790985 -45 40 C-38.4238932 39.69555061 -33.6973513 38.23297236 -28 35 C-26.6699437 34.32681914 -25.33744108 33.65838711 -24 33 C-24.37404514 35.51144596 -24.66776602 36.70666171 -26.6015625 38.4140625 C-31.01709363 41.05656183 -34.97702207 42.84890089 -40 44 C-32.35125756 43.75326637 -27.04312806 41.76971475 -21 37 C-18.44810136 33.64607607 -17.74233725 31.01288768 -17.75 26.875 C-18.21778126 24.30466507 -18.64820812 23.29633292 -20.66015625 21.6015625 C-26.88640908 18.41498664 -33.15629306 18.58312445 -40 19 C-40.495 17.515 -40.495 17.515 -41 16 C-32.86673007 14.76667628 -26.95743338 14.7281401 -19.625 18.9375 C-16.9444347 21.04365845 -15.23024301 22.59444675 -14.6640625 26.05078125 C-14.56859075 31.57859575 -15.25828124 34.66748354 -19 39 C-25.47082852 45.47082852 -32.74630415 48.19977036 -41.875 48.5625 C-50.52895405 48.27310132 -57.02170914 45.27523996 -64.44921875 41.02734375 C-72.9542567 36.16715889 -80.74710342 33.49056729 -90.39453125 31.69140625 C-94 31 -94 31 -96 30 C-96.75 28.125 -96.75 28.125 -97 26 C-96.01 24.515 -96.01 24.515 -95 23 C-92.77058595 23.31073024 -90.54147788 23.62365625 -88.3125 23.9375 C-87.07113281 24.11152344 -85.82976562 24.28554687 -84.55078125 24.46484375 C-81 25 -81 25 -78.60546875 25.56640625 C-70.55818637 26.90560917 -65.73318536 26.0131295 -59.0625 21.3125 C-57.66470946 20.3863745 -56.26497451 19.46317679 -54.86328125 18.54296875 C-54.1976416 18.10001465 -53.53200195 17.65706055 -52.84619141 17.20068359 C-47.1648067 13.50575501 -41.4163564 11.08633464 -34.9375 9.1875 C-29.36910324 7.45050332 -26.09880225 4.78147326 -21.94921875 0.7734375 C-15.69182722 -4.91966021 -6.78080676 -4.25771588 0 0 Z M-93 26 C-92.67 26.66 -92.34 27.32 -92 28 C-88.87374309 28.96041815 -88.87374309 28.96041815 -85.1875 29.6875 C-83.94355469 29.95949219 -82.69960938 30.23148438 -81.41796875 30.51171875 C-78.41522875 30.94068161 -76.7837478 31.04478192 -74 30 C-78.281516 28.45136655 -82.37066549 27.51847636 -86.875 26.875 C-88.02742188 26.70742187 -89.17984375 26.53984375 -90.3671875 26.3671875 C-91.23601562 26.24601562 -92.10484375 26.12484375 -93 26 Z " fill="#E4EAE1" transform="translate(364,118)"/>
<path d="M0 0 C0 0.66 0 1.32 0 2 C1.02222656 1.90203125 2.04445313 1.8040625 3.09765625 1.703125 C7.78600464 2.05979615 10.02784379 3.78296086 13.4375 6.75 C18.09022233 10.57770491 22.42721271 13.59605254 28 16 C28 16.66 28 17.32 28 18 C28.99 18.33 29.98 18.66 31 19 C32.24609375 20.63671875 32.24609375 20.63671875 33.4375 22.6875 C34.9473789 25.24337934 36.45717218 27.64004105 38.1875 30.0625 C40.19742899 33.31997112 41.09156458 36.29637867 42 40 C42.33 40.99 42.66 41.98 43 43 C45.25578518 52.00667514 45.20794459 60.79267552 45 70 C43.515 70.495 43.515 70.495 42 71 C42.83333333 73.16666667 42.83333333 73.16666667 45 74 C45.33 74.66 45.66 75.32 46 76 C43.81299059 78.18700941 42.92168566 78.3802485 40 79 C39.01 79.33 38.02 79.66 37 80 C37.99 80.495 37.99 80.495 39 81 C38.67 81.33 38.34 81.66 38 82 C39.32 82.33 40.64 82.66 42 83 C42.33 82.34 42.66 81.68 43 81 C43.33 81.99 43.66 82.98 44 84 C44.99 83.01 45.98 82.02 47 81 C47.66 81.33 48.32 81.66 49 82 C47.02 84.31 45.04 86.62 43 89 C42.01 88.505 42.01 88.505 41 88 C40.54625 88.495 40.0925 88.99 39.625 89.5 C38 91 38 91 36 91 C35.34 92.65 34.68 94.3 34 96 C33.01 96 32.02 96 31 96 C30.67 96.66 30.34 97.32 30 98 C29.01 97.01 29.01 97.01 28 96 C28 95.01 28 94.02 28 93 C26.865625 93.474375 25.73125 93.94875 24.5625 94.4375 C19.17700056 96.45945798 13.55805503 97.85268501 8 96 C5.80763733 96.35802561 5.80763733 96.35802561 3.4375 97 C-1.91955679 98.18344406 -6.61658941 97.84760082 -12 97 C-12.495 97.99 -12.495 97.99 -13 99 C-15.02045442 98.39816251 -17.02111039 97.72693904 -19 97 C-19.33 96.34 -19.66 95.68 -20 95 C-18.89140625 95.02320313 -17.7828125 95.04640625 -16.640625 95.0703125 C-15.17709008 95.08907577 -13.71354786 95.10727537 -12.25 95.125 C-11.52039063 95.14175781 -10.79078125 95.15851563 -10.0390625 95.17578125 C-6.046141 95.21208054 -3.46422174 94.90394727 0 93 C3.26171031 92.325772 6.51756362 91.76048645 9.8046875 91.23242188 C14.82596558 90.36849475 19.27038925 88.90350926 24 87 C23.30140869 87.12117188 22.60281738 87.24234375 21.88305664 87.3671875 C-1.6877101 91.39340043 -1.6877101 91.39340043 -12 91.375 C-12.692146 91.37628906 -13.38429199 91.37757813 -14.09741211 91.37890625 C-18.72561889 91.27438111 -18.72561889 91.27438111 -21 89 C-20.43192627 88.95512451 -19.86385254 88.91024902 -19.27856445 88.86401367 C-0.26431743 88.51512336 -0.26431743 88.51512336 16 81 C18.0234375 80.4453125 18.0234375 80.4453125 20.375 80.125 C26.29112859 79.10256714 35.64447479 77.35552521 40 73 C41.14341513 61.14633366 40.40505079 50.07693429 36 39 C35.32425258 37.00304986 34.6551463 35.00380333 34 33 C33.34 33 32.68 33 32 33 C30.81640625 31.64453125 30.81640625 31.64453125 29.5625 29.8125 C29.11648438 29.16925781 28.67046875 28.52601562 28.2109375 27.86328125 C27 26 27 26 25.6875 23.5 C19.79972756 14.77737416 10.12227261 10.57301427 1 6 C1 5.34 1 4.68 1 4 C-0.98 3.34 -2.96 2.68 -5 2 C-2 0 -2 0 0 0 Z " fill="#CAC5B1" transform="translate(347,83)"/>
<path d="M0 0 C1.18681673 0.9760006 2.35398397 1.97639932 3.5 3 C4.1496875 3.55816406 4.799375 4.11632812 5.46875 4.69140625 C19.54894709 17.66143395 26.29950978 36.21920241 27.3125 54.9375 C27.40821289 56.21077148 27.40821289 56.21077148 27.50585938 57.50976562 C27.55162109 58.31994141 27.59738281 59.13011719 27.64453125 59.96484375 C27.68940674 60.6930835 27.73428223 61.42132324 27.78051758 62.17163086 C27.68794678 62.77499268 27.59537598 63.37835449 27.5 64 C26.51 64.66 25.52 65.32 24.5 66 C24.314375 64.2984375 24.314375 64.2984375 24.125 62.5625 C23.91669922 60.70832968 23.70835931 58.85416375 23.5 57 C23.43022949 56.36191406 23.36045898 55.72382813 23.28857422 55.06640625 C22.25479191 42.35887542 22.25479191 42.35887542 19.5 30 C18.84 29.67 18.18 29.34 17.5 29 C16.7890625 27.07421875 16.7890625 27.07421875 16.125 24.6875 C14.8954857 20.75057037 13.58081899 18.79199221 10.5 16 C9.48377342 14.00819591 8.48287008 12.00847365 7.5 10 C5.45943261 7.5343144 4.63026076 7.04342025 1.5 6 C1.5 5.34 1.5 4.68 1.5 4 C0.95988281 3.7421875 0.41976562 3.484375 -0.13671875 3.21875 C-2.94451985 1.77076001 -5.61067307 0.13705046 -8.3125 -1.5 C-12.73033644 -4.1085758 -16.55473348 -5.79115707 -21.5 -7 C-21.995 -7.99 -21.995 -7.99 -22.5 -9 C-24.15 -9 -25.8 -9 -27.5 -9 C-26.10804085 -6.2160817 -24.34424221 -6.02101003 -21.5 -5 C-21.83 -4.34 -22.16 -3.68 -22.5 -3 C-23.2528125 -3.2165625 -24.005625 -3.433125 -24.78125 -3.65625 C-42.09261221 -8.1941799 -58.72875455 -7.01360566 -74.42578125 1.98046875 C-79.28978384 5.17575381 -83.41513321 8.8717541 -87.5 13 C-88.13550781 13.60199219 -88.77101563 14.20398438 -89.42578125 14.82421875 C-98.8487715 24.45614448 -102.58063973 38.21646591 -105.5 51 C-106.16 51 -106.82 51 -107.5 51 C-106.8522356 34.5467842 -100.73886304 22.09095321 -89.55078125 10.2265625 C-87.71296446 8.23121856 -86.08233858 6.20020412 -84.5 4 C-97.4416131 15.72580394 -106.60364035 29.25154658 -108.5 47 C-108.57978634 51.13880676 -108.47563515 55.27438214 -108.37304688 59.41210938 C-108.36208984 60.23130859 -108.35113281 61.05050781 -108.33984375 61.89453125 C-108.32300537 62.63550049 -108.30616699 63.37646973 -108.28881836 64.13989258 C-108.5 66 -108.5 66 -110.5 68 C-115.51641467 56.713067 -112.32548021 41.52950092 -108.3125 30.375 C-100.78508822 12.25264735 -87.54752404 -0.68400983 -69.75 -8.75 C-45.68394073 -18.17120925 -20.8735919 -14.93894322 0 0 Z M-44.5 -11 C-44.5 -10.67 -44.5 -10.34 -44.5 -10 C-39.22 -9.34 -33.94 -8.68 -28.5 -8 C-28.17 -8.66 -27.84 -9.32 -27.5 -10 C-33.16642551 -11.22517308 -38.73708518 -11.09228867 -44.5 -11 Z M-55.5 -10 C-51.5 -9 -51.5 -9 -51.5 -9 Z M-63.5 -7 C-60.035 -7.495 -60.035 -7.495 -56.5 -8 C-59.98581856 -9.2020064 -60.17992344 -9.21338437 -63.5 -7 Z M-68.98046875 -6.00390625 C-69.87378906 -5.52824219 -70.76710938 -5.05257812 -71.6875 -4.5625 C-72.58855469 -4.08941406 -73.48960937 -3.61632812 -74.41796875 -3.12890625 C-75.10503906 -2.75636719 -75.79210937 -2.38382813 -76.5 -2 C-75.51 -1.505 -75.51 -1.505 -74.5 -1 C-71.79620134 -1.99590109 -71.79620134 -1.99590109 -68.875 -3.4375 C-67.87210937 -3.91058594 -66.86921875 -4.38367188 -65.8359375 -4.87109375 C-64.67964844 -5.42990234 -64.67964844 -5.42990234 -63.5 -6 C-66.43355424 -7.33728333 -66.43355424 -7.33728333 -68.98046875 -6.00390625 Z M-78.5 -1 C-78.83 -0.34 -79.16 0.32 -79.5 1 C-78.51 0.67 -77.52 0.34 -76.5 0 C-77.16 -0.33 -77.82 -0.66 -78.5 -1 Z M-81.5 1 C-81.83 1.66 -82.16 2.32 -82.5 3 C-81.51 2.67 -80.52 2.34 -79.5 2 C-80.16 1.67 -80.82 1.34 -81.5 1 Z " fill="#EBF1E5" transform="translate(369.5,92)"/>
<path d="M0 0 C-1.98 0.99 -3.96 1.98 -6 3 C-5.34 3 -4.68 3 -4 3 C-4 3.66 -4 4.32 -4 5 C-3.401875 4.835 -2.80375 4.67 -2.1875 4.5 C0 4 0 4 3 4 C3.66 3.67 4.32 3.34 5 3 C7 2 7 2 10 2 C8.86072044 5.41783867 8.18617827 5.87349509 5.25 7.75 C4.57453125 8.19859375 3.8990625 8.6471875 3.203125 9.109375 C1 10 1 10 -1.24609375 9.51953125 C-5.23187273 8.76760415 -8.45482474 9.87224383 -12.3125 10.9375 C-13.05306641 11.13279297 -13.79363281 11.32808594 -14.55664062 11.52929688 C-16.37366113 12.0099281 -18.18720614 12.50366514 -20 13 C-19.34 13.66 -18.68 14.32 -18 15 C-21.44633882 17.29755922 -22.71068391 17.23643976 -26.76171875 17.1953125 C-27.87998047 17.18886719 -28.99824219 17.18242187 -30.15039062 17.17578125 C-31.90125977 17.15064453 -31.90125977 17.15064453 -33.6875 17.125 C-34.86634766 17.11597656 -36.04519531 17.10695312 -37.25976562 17.09765625 C-40.17338026 17.07406423 -43.08658892 17.0411454 -46 17 C-46 17.66 -46 18.32 -46 19 C-47.73030291 18.71515154 -49.45920714 18.42180062 -51.1875 18.125 C-52.15042969 17.96257812 -53.11335938 17.80015625 -54.10546875 17.6328125 C-56.91032604 17.01960483 -59.37224747 16.14333657 -62 15 C-62 14.34 -62 13.68 -62 13 C-67.28 10.36 -72.56 7.72 -78 5 C-78 4.34 -78 3.68 -78 3 C-73.29748864 4.46745035 -68.84584265 6.03814863 -64.4375 8.25 C-59.22439031 10.6469368 -55.51425702 9.96985495 -50.02636719 8.45532227 C-47.91070209 7.97993487 -46.05615861 7.88593819 -43.890625 7.90234375 C-43.13652344 7.90556641 -42.38242187 7.90878906 -41.60546875 7.91210938 C-40.82816406 7.92048828 -40.05085938 7.92886719 -39.25 7.9375 C-38.45722656 7.94201172 -37.66445313 7.94652344 -36.84765625 7.95117188 C-34.89840492 7.96291435 -32.94919262 7.98084854 -31 8 C-31 8.33 -31 8.66 -31 9 C-29.43759968 9.02730408 -27.8750573 9.04653226 -26.3125 9.0625 C-25.44238281 9.07410156 -24.57226562 9.08570313 -23.67578125 9.09765625 C-21.01191443 9.00043483 -18.59426811 8.59364333 -16 8 C-16.81339844 8.01160156 -17.62679687 8.02320313 -18.46484375 8.03515625 C-44.13010204 8.2372449 -44.13010204 8.2372449 -56 5 C-56 4.34 -56 3.68 -56 3 C-52.13006902 1.06503451 -47.03101292 1.97057441 -42.74023438 2.0390625 C-38.68092823 2.0789574 -34.96258358 2.02882495 -31 1 C-31 0.67 -31 0.34 -31 0 C-29.22925083 -0.02705729 -27.45838289 -0.04642195 -25.6875 -0.0625 C-24.70136719 -0.07410156 -23.71523438 -0.08570313 -22.69921875 -0.09765625 C-20 0 -20 0 -17 1 C-13.68132336 0.58462457 -10.41902405 -0.02611621 -7.12890625 -0.625 C-4.2999788 -0.96404749 -2.64442419 -0.93561937 0 0 Z M-13 7 C-11.02 7 -9.04 7 -7 7 C-6.67 6.34 -6.34 5.68 -6 5 C-9.10551666 5 -10.35261084 5.5393715 -13 7 Z M-45 15 C-45 15.33 -45 15.66 -45 16 C-43.35 16 -41.7 16 -40 16 C-40 15.67 -40 15.34 -40 15 C-41.65 15 -43.3 15 -45 15 Z " fill="#CAC5B1" transform="translate(362,190)"/>
<path d="M0 0 C0 3.20395416 -0.74335022 5.09399739 -2 8 C-1.01 8.33 -0.02 8.66 1 9 C1 9.66 1 10.32 1 11 C2.65 11.33 4.3 11.66 6 12 C5.01 12.495 5.01 12.495 4 13 C3.34 12.67 2.68 12.34 2 12 C3.03345239 15.61708337 3.98488313 16.98745621 6.9375 19.4375 C10.16980642 22.14208292 11.27683976 24.22545852 13 28 C14.63794711 29.99402257 15.78563762 30.89912359 18.125 32 C20 33 20 33 21 36 C23.49759982 37.69882448 23.49759982 37.69882448 26 39 C26 38.34 26 37.68 26 37 C27.65 37.33 29.3 37.66 31 38 C31 37.34 31 36.68 31 36 C30.0925 35.9175 29.185 35.835 28.25 35.75 C24.59922161 34.90751268 23.36615417 33.82118382 21 31 C21.33 30.67 21.66 30.34 22 30 C20.88625 29.71125 19.7725 29.4225 18.625 29.125 C15 28 15 28 13 26 C19.95660771 26.57021375 26.31427305 28.01302694 33 30 C33 30.66 33 31.32 33 32 C34.65 32 36.3 32 38 32 C37 34 37 34 35 35 C36.98 35 38.96 35 41 35 C41 35.66 41 36.32 41 37 C44.3 37.33 47.6 37.66 51 38 C49.68 38.66 48.36 39.32 47 40 C49.65223421 41.3261171 51.92232966 41.31958711 54.8828125 41.53515625 C56.04941406 41.62216797 57.21601563 41.70917969 58.41796875 41.79882812 C59.64128906 41.88583984 60.86460937 41.97285156 62.125 42.0625 C63.35605469 42.15337891 64.58710938 42.24425781 65.85546875 42.33789062 C68.90339115 42.56235003 71.95154703 42.78288542 75 43 C74.505 43.99 74.505 43.99 74 45 C68.72 45 63.44 45 58 45 C58 45.33 58 45.66 58 46 C57.39671875 45.98839844 56.7934375 45.97679687 56.171875 45.96484375 C55.37265625 45.95582031 54.5734375 45.94679687 53.75 45.9375 C52.96109375 45.92589844 52.1721875 45.91429687 51.359375 45.90234375 C49.0446214 45.87600693 49.0446214 45.87600693 47.17578125 46.6796875 C43.61716587 47.20357702 40.65129077 45.56041158 37.4375 44.1875 C36.76525391 43.91357422 36.09300781 43.63964844 35.40039062 43.35742188 C32.38070034 42.10696423 29.72732091 40.81821394 27 39 C27 39.66 27 40.32 27 41 C27.69480469 41.26554687 28.38960938 41.53109375 29.10546875 41.8046875 C32.25676076 43.10603076 35.27000171 44.58703383 38.3125 46.125 C39.38113281 46.66382813 40.44976562 47.20265625 41.55078125 47.7578125 C42.35902344 48.16773438 43.16726563 48.57765625 44 49 C43.505 49.99 43.505 49.99 43 51 C22.80380733 45.1537337 7.00434329 28.44700947 -3.13671875 10.5703125 C-4.23715859 7.2938898 -3.97697282 5.29326988 -3 2 C-2.01 1.34 -1.02 0.68 0 0 Z " fill="#DAD2BE" transform="translate(257,154)"/>
<path d="M0 0 C0 0.99 0 1.98 0 3 C-9.91209497 5.09379085 -19.93154767 6.01923884 -30 7 C-26.04 7 -22.08 7 -18 7 C-18 7.66 -18 8.32 -18 9 C-20.31 9.33 -22.62 9.66 -25 10 C-24.30132812 10.04898438 -23.60265625 10.09796875 -22.8828125 10.1484375 C-21.97273438 10.22320312 -21.06265625 10.29796875 -20.125 10.375 C-19.22007812 10.44460937 -18.31515625 10.51421875 -17.3828125 10.5859375 C-15 11 -15 11 -13 13 C-18.61 13 -24.22 13 -30 13 C-28.02 13.66 -26.04 14.32 -24 15 C-23.67 14.67 -23.34 14.34 -23 14 C-21.52083452 13.97908251 -20.040862 14.00945425 -18.5625 14.0625 C-13.88914868 14.12954952 -9.75086879 13.46723603 -5.2265625 12.33984375 C-2.82753193 11.97367593 -1.28814227 12.25295812 1 13 C-4.63020577 16.01150541 -9.66491082 16.47582404 -16.01171875 16.7890625 C-18.51455017 16.96573295 -20.59569849 17.35919469 -23 18 C-26.625 18.1875 -26.625 18.1875 -30 18 C-30.66 17.34 -31.32 16.68 -32 16 C-34.62869475 15.45767207 -34.62869475 15.45767207 -37.70703125 15.18359375 C-38.85107422 15.05919922 -39.99511719 14.93480469 -41.17382812 14.80664062 C-42.37458984 14.68482422 -43.57535156 14.56300781 -44.8125 14.4375 C-47.17336586 14.18797759 -49.53405111 13.93673901 -51.89453125 13.68359375 C-52.94487549 13.57587646 -53.99521973 13.46815918 -55.07739258 13.35717773 C-57.75852694 13.02951091 -60.36093757 12.56966278 -63 12 C-63.33 11.01 -63.66 10.02 -64 9 C-66.7906423 8.10900573 -66.7906423 8.10900573 -70.125 7.5625 C-75.53342552 6.44392574 -79.44057924 5.07495819 -84 2 C-80.48441212 0.82813737 -80.19736672 1.12908914 -77 2.625 C-71.78149538 4.84597072 -66.47612041 6.32452563 -61 7.75 C-59.72576172 8.08378662 -59.72576172 8.08378662 -58.42578125 8.42431641 C-54.26355107 9.575761 -54.26355107 9.575761 -50 10 C-51.65 9.34 -53.3 8.68 -55 8 C-55 7.67 -55 7.34 -55 7 C-54.16855469 6.95101562 -53.33710938 6.90203125 -52.48046875 6.8515625 C-51.39378906 6.77679688 -50.30710937 6.70203125 -49.1875 6.625 C-48.10855469 6.55539063 -47.02960938 6.48578125 -45.91796875 6.4140625 C-42.81373814 6.18804267 -42.81373814 6.18804267 -40 4 C-37.46313477 3.62109375 -37.46313477 3.62109375 -34.44140625 3.4375 C-33.33216797 3.36273438 -32.22292969 3.28796875 -31.08007812 3.2109375 C-29.33887695 3.10652344 -29.33887695 3.10652344 -27.5625 3 C-19.72433231 2.51544241 -12.07496458 1.81262564 -4.34350586 0.40234375 C-2 0 -2 0 0 0 Z " fill="#D3CFBE" transform="translate(358,166)"/>
<path d="M0 0 C-1.98 0.99 -3.96 1.98 -6 3 C-5.34 3 -4.68 3 -4 3 C-3.505 4.485 -3.505 4.485 -3 6 C-3.65226562 6.06058594 -4.30453125 6.12117187 -4.9765625 6.18359375 C-10.48052587 6.70135041 -10.48052587 6.70135041 -15.9375 7.5625 C-28.59765336 9.37109334 -43.66811426 8.36324157 -56 5 C-56 4.34 -56 3.68 -56 3 C-52.13006902 1.06503451 -47.03101292 1.97057441 -42.74023438 2.0390625 C-38.68092823 2.0789574 -34.96258358 2.02882495 -31 1 C-31 0.67 -31 0.34 -31 0 C-29.22925083 -0.02705729 -27.45838289 -0.04642195 -25.6875 -0.0625 C-24.70136719 -0.07410156 -23.71523438 -0.08570313 -22.69921875 -0.09765625 C-20 0 -20 0 -17 1 C-13.68132336 0.58462457 -10.41902405 -0.02611621 -7.12890625 -0.625 C-4.2999788 -0.96404749 -2.64442419 -0.93561937 0 0 Z " fill="#BCB49D" transform="translate(362,190)"/>
<path d="M0 0 C3.45259693 1.72629846 5.07238601 2.83225473 7.671875 5.4765625 C8.33574219 6.146875 8.99960937 6.8171875 9.68359375 7.5078125 C10.36550781 8.20648438 11.04742187 8.90515625 11.75 9.625 C12.44738281 10.33140625 13.14476562 11.0378125 13.86328125 11.765625 C15.58012488 13.50598703 17.29211832 15.25084981 19 17 C19.02699725 14.72923158 19.04639453 12.45837179 19.0625 10.1875 C19.07410156 8.92292969 19.08570313 7.65835938 19.09765625 6.35546875 C19.16159116 3.00394763 19.16159116 3.00394763 18 0 C19.98 0 21.96 0 24 0 C23.67 8.25 23.34 16.5 23 25 C18.91958138 23.97989534 18.1084535 23.4733273 15.328125 20.62109375 C14.66425781 19.94755859 14.00039063 19.27402344 13.31640625 18.58007812 C12.63449219 17.87302734 11.95257813 17.16597656 11.25 16.4375 C10.55261719 15.72658203 9.85523438 15.01566406 9.13671875 14.28320312 C7.41764502 12.52880597 5.70791087 10.76526608 4 9 C4 13.95 4 18.9 4 24 C2.68 24.33 1.36 24.66 0 25 C0 16.75 0 8.5 0 0 Z " fill="#F6FBF3" transform="translate(341,234)"/>
<path d="M0 0 C-0.15847412 0.55719727 -0.31694824 1.11439453 -0.48022461 1.68847656 C-1.03570147 4.15877011 -1.208468 6.45553604 -1.31640625 8.984375 C-1.35830078 9.91894531 -1.40019531 10.85351562 -1.44335938 11.81640625 C-1.48267578 12.78449219 -1.52199219 13.75257813 -1.5625 14.75 C-1.60568359 15.73355469 -1.64886719 16.71710938 -1.69335938 17.73046875 C-1.79922052 20.15351275 -1.90130171 22.5766554 -2 25 C-5.04332765 23.6415798 -7.12309151 22.11536976 -9.453125 19.7421875 C-10.071875 19.11699219 -10.690625 18.49179688 -11.328125 17.84765625 C-11.96234375 17.19667969 -12.5965625 16.54570312 -13.25 15.875 C-13.8996875 15.21628906 -14.549375 14.55757812 -15.21875 13.87890625 C-16.81706311 12.25708853 -18.40914676 10.62913581 -20 9 C-20 14.28 -20 19.56 -20 25 C-21.32 24.67 -22.64 24.34 -24 24 C-24 16.08 -24 8.16 -24 0 C-20.62706435 1.68646783 -19.06653006 2.69149717 -16.546875 5.2578125 C-15.928125 5.88300781 -15.309375 6.50820312 -14.671875 7.15234375 C-14.03765625 7.80332031 -13.4034375 8.45429688 -12.75 9.125 C-12.1003125 9.78371094 -11.450625 10.44242188 -10.78125 11.12109375 C-9.18293689 12.74291147 -7.59085324 14.37086419 -6 16 C-6 10.72 -6 5.44 -6 0 C-3 -1 -3 -1 0 0 Z " fill="#F5F8F0" transform="translate(225,234)"/>
<path d="M0 0 C1.65 0 3.3 0 5 0 C5.33 0.99 5.66 1.98 6 3 C7.32 3 8.64 3 10 3 C10.79954077 10.03595876 8.3274437 15.85769531 5 22 C3.06769972 24.42649473 1.74808503 25.42131286 -1 27 C-3.375 26.8125 -3.375 26.8125 -5 26 C-4.175 25.54625 -3.35 25.0925 -2.5 24.625 C-1.675 24.08875 -0.85 23.5525 0 23 C0 22.34 0 21.68 0 21 C-0.99 21 -1.98 21 -3 21 C-3.61875 21.845625 -4.2375 22.69125 -4.875 23.5625 C-8.80945488 28.66632847 -15.26705976 31.35643411 -21 34 C-21.66 34 -22.32 34 -23 34 C-22.67 32.68 -22.34 31.36 -22 30 C-19.69 29.34 -17.38 28.68 -15 28 C-15 27.34 -15 26.68 -15 26 C-15.66 25.67 -16.32 25.34 -17 25 C-16.67 24.01 -16.34 23.02 -16 22 C-15.34 22 -14.68 22 -14 22 C-13.34 23.32 -12.68 24.64 -12 26 C-9.9837767 25.28436734 -9.9837767 25.28436734 -8 24 C-7.63837971 22.67405895 -7.30271961 21.34061543 -7 20 C-6.01 19.67 -5.02 19.34 -4 19 C-4.33 18.34 -4.66 17.68 -5 17 C-3.35 16.34 -1.7 15.68 0 15 C0.33 15.66 0.66 16.32 1 17 C2.65 15.02 4.3 13.04 6 11 C5.01 11 4.02 11 3 11 C2.67 11.99 2.34 12.98 2 14 C1.34 13.34 0.68 12.68 0 12 C-3.08347826 11.83318891 -3.08347826 11.83318891 -6 12 C-5.67 11.34 -5.34 10.68 -5 10 C-6.32 9.67 -7.64 9.34 -9 9 C-8.06027344 8.85304687 -8.06027344 8.85304687 -7.1015625 8.703125 C-6.28429687 8.55359375 -5.46703125 8.4040625 -4.625 8.25 C-3.81289063 8.11078125 -3.00078125 7.9715625 -2.1640625 7.828125 C0.17709092 7.18250739 0.17709092 7.18250739 1.2890625 4.921875 C1.52367187 4.28765625 1.75828125 3.6534375 2 3 C1.67 3.33 1.34 3.66 1 4 C0.67 2.68 0.34 1.36 0 0 Z " fill="#DAD5C0" transform="translate(389,154)"/>
<path d="M0 0 C3.47520779 2.24636179 5.03178704 4.33966956 6.25 8.375 C6.43719954 12.9817365 5.87129939 16.3680665 3.4375 20.3125 C-0.6274435 24.14516101 -4.03937918 24.83120055 -9.5 24.6875 C-13.08869577 24.18907003 -15.09389601 22.7781417 -17.75 20.375 C-20.85770441 16.06431324 -21.17602899 12.59339251 -20.39453125 7.4921875 C-19.14723762 3.3950169 -16.24455944 1.42119161 -12.875 -0.9375 C-8.27888733 -2.42447763 -4.27596099 -2.1696208 0 0 Z M-15.75 4.375 C-17.25186547 8.88059641 -17.46589695 12.71713337 -15.5625 17.125 C-13.42451149 19.7790547 -11.91592547 21.07984867 -8.75 22.375 C-5.35414465 22.25790154 -2.84919941 21.99787966 0.125 20.3125 C2.29085232 16.582421 2.7892124 12.50696286 1.7421875 8.3671875 C0.37803598 4.93526946 -0.63813249 3.44957834 -3.75 1.375 C-10.43277483 0.74735173 -10.43277483 0.74735173 -15.75 4.375 Z " fill="#F3F9F1" transform="translate(256.75,234.625)"/>
<path d="M0 0 C0.99 0.495 0.99 0.495 2 1 C2.625 3.0625 2.625 3.0625 3 5 C-8.08868079 16.51516851 -24.63840852 25.672676 -40.89013672 26.07080078 C-44.24002714 26.09837809 -47.58760189 26.08725763 -50.9375 26.0625 C-52.67870117 26.05573242 -52.67870117 26.05573242 -54.45507812 26.04882812 C-57.30343934 26.03710647 -60.15169222 26.0206976 -63 26 C-63 25.34 -63 24.68 -63 24 C-47.47114826 22.8405124 -47.47114826 22.8405124 -39.953125 23.16015625 C-37.67284374 23.13206148 -37.67284374 23.13206148 -35 21 C-33.18064107 20.48900721 -31.34418334 20.03751469 -29.5 19.625 C-16.85019915 16.80332429 -16.85019915 16.80332429 -7 9 C-7.62648438 9.30035156 -8.25296875 9.60070312 -8.8984375 9.91015625 C-9.71570313 10.29042969 -10.53296875 10.67070312 -11.375 11.0625 C-12.18710937 11.44535156 -12.99921875 11.82820312 -13.8359375 12.22265625 C-14.55007813 12.47917969 -15.26421875 12.73570312 -16 13 C-16.66 12.67 -17.32 12.34 -18 12 C-16.55098565 9.10197129 -14.55576719 8.72596064 -11.625 7.4375 C-10.64789063 7.00308594 -9.67078125 6.56867188 -8.6640625 6.12109375 C-6 5 -6 5 -3 4 C-3 3.34 -3 2.68 -3 2 C-2.01 1.34 -1.02 0.68 0 0 Z " fill="#D2CFBF" transform="translate(379,183)"/>
<path d="M0 0 C5.47788103 1.05106069 10.89840326 2.21885555 16.3125 3.5625 C21.99398193 4.91041979 27.49273765 5.45630849 33.3203125 5.69140625 C36 6 36 6 39 8 C39.495 8.99 39.495 8.99 40 10 C33.565 10.495 33.565 10.495 27 11 C28.65 11.66 30.3 12.32 32 13 C32 13.33 32 13.66 32 14 C25.07950635 13.42683028 18.7776886 12.02166041 12.125 10.0625 C11.18914062 9.79759766 10.25328125 9.53269531 9.2890625 9.25976562 C5.41170702 8.13722665 2.38696208 7.25797472 -1 5 C-0.67 3.35 -0.34 1.7 0 0 Z " fill="#CDC7B5" transform="translate(279,163)"/>
<path d="M0 0 C4.33148248 0.75257418 8.44913841 2.0306852 12.625 3.375 C18.27740891 5.16965112 23.93798196 6.85959627 29.671875 8.37890625 C31.7279824 8.92743155 33.77148721 9.52273393 35.8125 10.125 C38.86737069 10.96359195 41.86762409 11.54160352 45 12 C45 11.01 45 10.02 45 9 C43.02 9 41.04 9 39 9 C39 8.67 39 8.34 39 8 C42.63 8 46.26 8 50 8 C50 8.66 50 9.32 50 10 C51.65 10 53.3 10 55 10 C55 10.99 55 11.98 55 13 C56.65614657 13.38218767 58.32457024 13.71395102 60 14 C60.33 13.67 60.66 13.34 61 13 C62.47916548 12.97908251 63.959138 13.00945425 65.4375 13.0625 C70.11085132 13.12954952 74.24913121 12.46723603 78.7734375 11.33984375 C81.17246807 10.97367593 82.71185773 11.25295812 85 12 C79.36979423 15.01150541 74.33508918 15.47582404 67.98828125 15.7890625 C65.48544983 15.96573295 63.40430151 16.35919469 61 17 C57.375 17.1875 57.375 17.1875 54 17 C53.34 16.34 52.68 15.68 52 15 C49.37130525 14.45767207 49.37130525 14.45767207 46.29296875 14.18359375 C45.14892578 14.05919922 44.00488281 13.93480469 42.82617188 13.80664062 C41.62541016 13.68482422 40.42464844 13.56300781 39.1875 13.4375 C36.82663414 13.18797759 34.46594889 12.93673901 32.10546875 12.68359375 C31.05512451 12.57587646 30.00478027 12.46815918 28.92260742 12.35717773 C26.24147306 12.02951091 23.63906243 11.56966278 21 11 C20.67 10.01 20.34 9.02 20 8 C17.2093577 7.10900573 17.2093577 7.10900573 13.875 6.5625 C8.46657448 5.44392574 4.55942076 4.07495819 0 1 C0 0.67 0 0.34 0 0 Z " fill="#DDDACB" transform="translate(274,167)"/>
<path d="M0 0 C0.66 0 1.32 0 2 0 C2 0.66 2 1.32 2 2 C2.804375 2.268125 3.60875 2.53625 4.4375 2.8125 C10.625 4.875 16.8125 6.9375 23 9 C23 9.99 23 10.98 23 12 C24.65 12 26.3 12 28 12 C28.495 12.99 28.495 12.99 29 14 C32.02934491 14.65772428 32.02934491 14.65772428 35 15 C35 15.66 35 16.32 35 17 C33.35 17.33 31.7 17.66 30 18 C30 18.66 30 19.32 30 20 C25.94393835 19.53199289 22.53411321 19.12046792 19 17 C21 16 21 16 22.9453125 16.55859375 C23.66460937 16.84863281 24.38390625 17.13867188 25.125 17.4375 C25.84945312 17.72496094 26.57390625 18.01242188 27.3203125 18.30859375 C28.15175781 18.65083984 28.15175781 18.65083984 29 19 C28.11691031 16.6608291 28.11691031 16.6608291 25.05859375 15.9296875 C23.86363281 15.58164063 22.66867187 15.23359375 21.4375 14.875 C19.64119141 14.34519531 19.64119141 14.34519531 17.80859375 13.8046875 C16.88175781 13.53914062 15.95492188 13.27359375 15 13 C15 12.34 15 11.68 15 11 C9.06 9.515 9.06 9.515 3 8 C2.67 8.66 2.34 9.32 2 10 C1.01 9.34 0.02 8.68 -1 8 C-1 7.34 -1 6.68 -1 6 C-1.78375 5.896875 -2.5675 5.79375 -3.375 5.6875 C-6 5 -6 5 -8 2 C-3.545 2.99 -3.545 2.99 1 4 C0.67 2.68 0.34 1.36 0 0 Z " fill="#D2CBB8" transform="translate(272,166)"/>
<path d="M0 0 C0.66 -0.33 1.32 -0.66 2 -1 C4.125 -0.0625 4.125 -0.0625 6 1 C6 1.66 6 2.32 6 3 C4.02 3.33 2.04 3.66 0 4 C0.598125 4.165 1.19625 4.33 1.8125 4.5 C5.18527798 6.81276204 5.8331548 10.19891337 7 14 C6.01 14.495 6.01 14.495 5 15 C7.31 15.66 9.62 16.32 12 17 C12 17.99 12 18.98 12 20 C14.87501211 22.07639763 17.51375944 23.3543999 21 24 C21 24.66 21 25.32 21 26 C22.32 26.33 23.64 26.66 25 27 C22 28 22 28 18.8125 26.5625 C17.884375 26.046875 16.95625 25.53125 16 25 C16 25.66 16 26.32 16 27 C13.625 26.25 13.625 26.25 11 25 C10.3162955 23.67532254 9.65035814 22.34136367 9 21 C7.36368108 19.95107762 5.69514137 18.95093297 4 18 C1.22876525 15.94723352 0.98227201 14.92782176 0.125 11.4375 C-0.61264047 7.83295514 -0.61264047 7.83295514 -3.5 6.6875 C-4.325 6.460625 -5.15 6.23375 -6 6 C-6.66 5.34 -7.32 4.68 -8 4 C-8 2.68 -8 1.36 -8 0 C-4.66991025 -1.11002992 -3.34016824 -0.68516272 0 0 Z " fill="#CCC3AD" transform="translate(267,166)"/>
<path d="M0 0 C4.62 0 9.24 0 14 0 C13.67 1.32 13.34 2.64 13 4 C10.69 3.34 8.38 2.68 6 2 C6 4.97 6 7.94 6 11 C9.465 10.505 9.465 10.505 13 10 C13.33 11.32 13.66 12.64 14 14 C12 15 12 15 8.875 14.0625 C7.451875 13.5365625 7.451875 13.5365625 6 13 C6 15.97 6 18.94 6 22 C9.96 21.505 9.96 21.505 14 21 C14 22.32 14 23.64 14 25 C10.04 25 6.08 25 2 25 C0.80771675 22.6154335 0.899376 21.19139329 0.9375 18.53515625 C0.94523437 17.65279297 0.95296875 16.77042969 0.9609375 15.86132812 C0.98692466 13.9993482 1.0129661 12.13736903 1.0390625 10.27539062 C1.04679687 9.39173828 1.05453125 8.50808594 1.0625 7.59765625 C1.07410156 6.78820557 1.08570313 5.97875488 1.09765625 5.14477539 C1.08918399 2.81296932 1.08918399 2.81296932 0 0 Z " fill="#F7FBF4" transform="translate(380,234)"/>
<path d="M0 0 C0.66 0.66 1.32 1.32 2 2 C1.34 2.33 0.68 2.66 0 3 C0.66 3.33 1.32 3.66 2 4 C-1.22791555 6.1519437 -2.28400809 6.20086443 -6 6 C-6.495 5.01 -6.495 5.01 -7 4 C-7 5.65 -7 7.3 -7 9 C-9.16134557 10.08067278 -10.60735494 10.24240253 -13 10.46484375 C-16.31224437 10.80281437 -19.5879152 11.22421826 -22.875 11.75390625 C-31.48319362 13.12458465 -39.95682961 14.28879596 -48.6875 14.3125 C-49.75581055 14.32035522 -49.75581055 14.32035522 -50.84570312 14.32836914 C-55.73987386 14.26012614 -55.73987386 14.26012614 -58 12 C-56.14375 11.87044922 -56.14375 11.87044922 -54.25 11.73828125 C-35.82370407 10.3030039 -16.94001949 7.77520426 0 0 Z " fill="#BFB9A6" transform="translate(384,160)"/>
<path d="M0 0 C-1.13927956 3.41783867 -1.81382173 3.87349509 -4.75 5.75 C-5.42546875 6.19859375 -6.1009375 6.6471875 -6.796875 7.109375 C-9 8 -9 8 -11.36376953 7.46679688 C-14.3503064 6.93797131 -15.59696171 7.33242251 -18.3828125 8.421875 C-25.15860363 10.62771283 -31.81395036 10.36365875 -38.875 10.25 C-40.83179688 10.24226562 -40.83179688 10.24226562 -42.828125 10.234375 C-54.18790335 10.14068611 -54.18790335 10.14068611 -57 9 C-57.33 8.01 -57.66 7.02 -58 6 C-52.39 6 -46.78 6 -41 6 C-41 6.33 -41 6.66 -41 7 C-31.27319693 7.60512369 -22.10995034 5.55052033 -12.8125 2.8125 C-10 2 -10 2 -7 2 C-6.34 1.67 -5.68 1.34 -5 1 C-3 0 -3 0 0 0 Z " fill="#D5CFBC" transform="translate(372,192)"/>
<path d="M0 0 C8.03202039 0.0995705 16.12873035 3.64628663 23.125 7.3125 C23.125 8.3025 23.125 9.2925 23.125 10.3125 C22.1040625 9.879375 22.1040625 9.879375 21.0625 9.4375 C18.02750143 8.21624133 18.02750143 8.21624133 14.375 7.3125 C12.76625 6.8175 12.76625 6.8175 11.125 6.3125 C10.63 5.3225 10.63 5.3225 10.125 4.3125 C8.475 4.3125 6.825 4.3125 5.125 4.3125 C6.51695915 7.0964183 8.28075779 7.29148997 11.125 8.3125 C10.795 8.9725 10.465 9.6325 10.125 10.3125 C8.99578125 10.00505859 8.99578125 10.00505859 7.84375 9.69140625 C0.65081527 7.8669847 -6.08696615 6.90194601 -13.4921875 6.69165039 C-17.10136395 6.56100761 -19.79161109 6.26609756 -22.875 4.3125 C-21.740625 4.003125 -20.60625 3.69375 -19.4375 3.375 C-16.08724901 2.68325469 -16.08724901 2.68325469 -14.875 1.3125 C-9.94844279 0.61117991 -4.95810877 0.39984748 0 0 Z M-11.875 2.3125 C-11.875 2.6425 -11.875 2.9725 -11.875 3.3125 C-6.595 3.9725 -1.315 4.6325 4.125 5.3125 C4.455 4.6525 4.785 3.9925 5.125 3.3125 C-0.54142551 2.08732692 -6.11208518 2.22021133 -11.875 2.3125 Z " fill="#E1E5DA" transform="translate(336.875,78.6875)"/>
<path d="M0 0 C2.31 0 4.62 0 7 0 C7.0825 0.78375 7.165 1.5675 7.25 2.375 C8.24365069 7.177645 10.08713518 11.49809489 12 16 C14.64521932 13.35478068 15.44542519 10.33828651 16.625 6.875 C16.85445313 6.21628906 17.08390625 5.55757812 17.3203125 4.87890625 C17.88536242 3.25438774 18.44336277 1.62742029 19 0 C20.65 0 22.3 0 24 0 C23.71463379 0.55719727 23.42926758 1.11439453 23.13525391 1.68847656 C21.95488717 4.09185555 20.88703997 6.52179208 19.8359375 8.984375 C19.23652344 10.38623047 19.23652344 10.38623047 18.625 11.81640625 C18.2125 12.78449219 17.8 13.75257813 17.375 14.75 C16.95476562 15.73355469 16.53453125 16.71710938 16.1015625 17.73046875 C15.06661688 20.15318236 14.03280305 22.57637243 13 25 C10 24 10 24 8.95678711 22.11401367 C8.6500708 21.30681885 8.34335449 20.49962402 8.02734375 19.66796875 C7.51397461 18.34635742 7.51397461 18.34635742 6.99023438 16.99804688 C6.64283203 16.07056641 6.29542969 15.14308594 5.9375 14.1875 C5.23964862 12.36796456 4.54047642 10.54893503 3.83984375 8.73046875 C3.53425537 7.91989014 3.22866699 7.10931152 2.91381836 6.27416992 C2.04651471 4.11575862 1.0714871 2.06346247 0 0 Z " fill="#F3F9F2" transform="translate(270,234)"/>
<path d="M0 0 C0 0.66 0 1.32 0 2 C1.02222656 1.90203125 2.04445313 1.8040625 3.09765625 1.703125 C7.78600464 2.05979615 10.02784379 3.78296086 13.4375 6.75 C18.09022233 10.57770491 22.42721271 13.59605254 28 16 C28 16.66 28 17.32 28 18 C28.99 18.33 29.98 18.66 31 19 C29 20 29 20 27 20 C28.98 22.31 30.96 24.62 33 27 C32.67 27.66 32.34 28.32 32 29 C31.43796875 28.26265625 30.8759375 27.5253125 30.296875 26.765625 C22.43079987 17.29422841 11.69346413 11.67545211 1 6 C1 5.34 1 4.68 1 4 C-0.98 3.34 -2.96 2.68 -5 2 C-2 0 -2 0 0 0 Z " fill="#D0CFBB" transform="translate(347,83)"/>
<path d="M0 0 C-0.33 1.32 -0.66 2.64 -1 4 C-1.33 3.67 -1.66 3.34 -2 3 C-3.66617115 2.95936168 -5.33388095 2.957279 -7 3 C-8.25191351 4.9269727 -8.25191351 4.9269727 -7.4375 6.8125 C-5.99690517 9.2716158 -5.99690517 9.2716158 -2.9375 11.3125 C0 14 0 14 1.1875 17.5625 C1 21 1 21 -1 23.4375 C-4.58238789 25.30332702 -7.01447826 25.31258994 -11 25 C-11.33 23.68 -11.66 22.36 -12 21 C-9.03 21.33 -6.06 21.66 -3 22 C-4.25683214 16.97267144 -5.84507315 15.01232197 -10 12 C-12.31282587 8.53076119 -12.42478586 7.07794425 -12 3 C-8.48653908 -1.6313803 -5.41611996 -0.90268666 0 0 Z " fill="#F9FCF5" transform="translate(422,234)"/>
<path d="M0 0 C6.93 0 13.86 0 21 0 C21 1.32 21 2.64 21 4 C18.03 3.67 15.06 3.34 12 3 C12.33 10.26 12.66 17.52 13 25 C11.35 24.67 9.7 24.34 8 24 C8 16.74 8 9.48 8 2 C5.36 2.66 2.72 3.32 0 4 C0 2.68 0 1.36 0 0 Z " fill="#F6FBF4" transform="translate(435,234)"/>
<path d="M0 0 C-5.445 1.485 -5.445 1.485 -11 3 C-9.68 3.66 -8.36 4.32 -7 5 C-8.43640171 5.19573608 -9.87419504 5.38127816 -11.3125 5.5625 C-12.11300781 5.66691406 -12.91351563 5.77132812 -13.73828125 5.87890625 C-16 6 -16 6 -19 5 C-21.19236267 5.35802561 -21.19236267 5.35802561 -23.5625 6 C-28.91955679 7.18344406 -33.61658941 6.84760082 -39 6 C-39.33 6.66 -39.66 7.32 -40 8 C-42.02045442 7.39816251 -44.02111039 6.72693904 -46 6 C-46.33 5.34 -46.66 4.68 -47 4 C-45.33710938 4.03480469 -45.33710938 4.03480469 -43.640625 4.0703125 C-42.17709008 4.08907577 -40.71354786 4.10727537 -39.25 4.125 C-38.52039063 4.14175781 -37.79078125 4.15851563 -37.0390625 4.17578125 C-33.03688826 4.21216465 -30.48290767 3.8690455 -27 2 C-24.38327441 1.57089066 -21.81925115 1.21695649 -19.1875 0.9375 C-17.80592309 0.78053211 -16.42441192 0.62298436 -15.04296875 0.46484375 C-14.3679834 0.39120605 -13.69299805 0.31756836 -12.99755859 0.24169922 C-11.07043226 0.00852211 -9.15353293 -0.30486839 -7.23828125 -0.62109375 C-4 -1 -4 -1 0 0 Z " fill="#C3BEAB" transform="translate(374,174)"/>
<path d="M0 0 C0 3.20395416 -0.74335022 5.09399739 -2 8 C-1.01 8.33 -0.02 8.66 1 9 C1 9.66 1 10.32 1 11 C2.65 11.33 4.3 11.66 6 12 C5.01 12.495 5.01 12.495 4 13 C3.34 12.67 2.68 12.34 2 12 C3.03345239 15.61708337 3.98488313 16.98745621 6.9375 19.4375 C10.16980642 22.14208292 11.27683976 24.22545852 13 28 C14.63790856 29.99397564 15.65777077 30.86518243 18.0625 31.8125 C20.9379127 33.57484972 21.17700314 35.8451787 22 39 C11.30610511 31.83188517 0.2794715 20.48390206 -4 8 C-3.9375 4.625 -3.9375 4.625 -3 2 C-2.01 1.34 -1.02 0.68 0 0 Z " fill="#DCD5C5" transform="translate(257,154)"/>
<path d="M0 0 C0.495 0.99 0.495 0.99 1 2 C-10.09560184 6.0201456 -21.14490367 8.29708701 -33 7 C-35.4453125 5.48046875 -35.4453125 5.48046875 -37 4 C-33.38119974 2.79373325 -30.62719853 3.04816748 -26.8125 3.1875 C-19.85228145 3.34251064 -13.72440701 2.2761698 -7.05395508 0.3347168 C-2.16651274 -1.08325637 -2.16651274 -1.08325637 0 0 Z " fill="#C6C2AF" transform="translate(373,179)"/>
<path d="M0 0 C-2.56474034 2.56474034 -3.81449843 2.30908839 -7.375 2.5 C-11.18212036 2.7052356 -13.64611347 3.22785908 -17 5 C-19.25 4.625 -19.25 4.625 -21 4 C-21 4.66 -21 5.32 -21 6 C-19.68 6 -18.36 6 -17 6 C-17 6.66 -17 7.32 -17 8 C-17.90363281 8.20496094 -18.80726563 8.40992187 -19.73828125 8.62109375 C-21.50751953 9.02521484 -21.50751953 9.02521484 -23.3125 9.4375 C-25.07013672 9.83775391 -25.07013672 9.83775391 -26.86328125 10.24609375 C-30.00236971 10.95313969 -30.00236971 10.95313969 -33 12 C-32.375 10.125 -32.375 10.125 -31 8 C-27.875 6.75 -27.875 6.75 -25 6 C-27.31 6 -29.62 6 -32 6 C-32 5.34 -32 4.68 -32 4 C-21.07112882 0.8577025 -11.3806214 -0.14206046 0 0 Z " fill="#F0F6EC" transform="translate(335,78)"/>
<path d="M0 0 C0 0.33 0 0.66 0 1 C6.83079148 2.18225237 13.12631267 1.74464946 20 1 C20 1.66 20 2.32 20 3 C7.11707879 5.87809942 -9.30139866 4.46325491 -22 1 C-22 0.34 -22 -0.32 -22 -1 C-15.67872943 -4.16063529 -6.46464219 -1.98912067 0 0 Z " fill="#C7C2B1" transform="translate(328,194)"/>
<path d="M0 0 C1.41702513 0.14230808 2.8336096 0.28900746 4.25 0.4375 C5.43335938 0.55931641 5.43335938 0.55931641 6.640625 0.68359375 C9 1 9 1 10.79492188 1.51367188 C13.46244027 2.10199081 15.90900495 2.11218614 18.640625 2.09765625 C19.71054687 2.09443359 20.78046875 2.09121094 21.8828125 2.08789062 C22.99398438 2.07951172 24.10515625 2.07113281 25.25 2.0625 C26.37664062 2.05798828 27.50328125 2.05347656 28.6640625 2.04882812 C31.44276217 2.03705397 34.22135409 2.0206084 37 2 C36.67 2.66 36.34 3.32 36 4 C36.66 4.66 37.32 5.32 38 6 C34.91111478 8.05925681 34.29064073 8.2390374 30.8125 8.125 C28.9253125 8.063125 28.9253125 8.063125 27 8 C27.33 7.34 27.66 6.68 28 6 C25.36 5.67 22.72 5.34 20 5 C20 5.66 20 6.32 20 7 C13.375 6.25 13.375 6.25 10 4 C8.11845117 3.55888435 6.21937362 3.1890733 4.3125 2.875 C3.31863281 2.70742187 2.32476562 2.53984375 1.30078125 2.3671875 C0.54152344 2.24601563 -0.21773438 2.12484375 -1 2 C-0.67 1.34 -0.34 0.68 0 0 Z " fill="#BCB5A2" transform="translate(306,199)"/>
<path d="M0 0 C1.98 0 3.96 0 6 0 C5.67 0.66 5.34 1.32 5 2 C4.91550372 3.7404417 4.89276976 5.48409722 4.90234375 7.2265625 C4.90556641 8.2578125 4.90878906 9.2890625 4.91210938 10.3515625 C4.92048828 11.43179688 4.92886719 12.51203125 4.9375 13.625 C4.94201172 14.71296875 4.94652344 15.8009375 4.95117188 16.921875 C4.96298224 19.61463789 4.97945222 22.30729188 5 25 C3.35 24.67 1.7 24.34 0 24 C0 16.08 0 8.16 0 0 Z " fill="#F7FBF5" transform="translate(305,234)"/>
<path d="M0 0 C5.85779546 2.39637087 8.36890147 5.30377671 10.91015625 11.0625 C12.16634306 14.24094477 13 16.54548395 13 20 C11.68 19.67 10.36 19.34 9 19 C8.67 17.68 8.34 16.36 8 15 C7.34 15 6.68 15 6 15 C4.67578125 13.57421875 4.67578125 13.57421875 3.3125 11.6875 C2.85488281 11.07261719 2.39726562 10.45773438 1.92578125 9.82421875 C1.46751953 8.92123047 1.46751953 8.92123047 1 8 C1.33 7.01 1.66 6.02 2 5 C2.66 5.66 3.32 6.32 4 7 C3.01 5.824375 3.01 5.824375 2 4.625 C0 2 0 2 0 0 Z " fill="#C7C8B1" transform="translate(373,101)"/>
<path d="M0 0 C-0.33 0.66 -0.66 1.32 -1 2 C-4.92653533 3.0461019 -8.98376082 3.52623345 -13 4.125 C-14.17433594 4.30240723 -15.34867187 4.47981445 -16.55859375 4.66259766 C-23.37958206 5.63662433 -30.10602073 6.37346391 -37 6.375 C-37.69222656 6.3764502 -38.38445312 6.37790039 -39.09765625 6.37939453 C-43.72634292 6.27365708 -43.72634292 6.27365708 -46 4 C-42.3129484 3.6615815 -38.62529741 3.33018392 -34.9375 3 C-33.89916016 2.90460938 -32.86082031 2.80921875 -31.79101562 2.7109375 C-26.49831041 2.24047481 -21.3156696 2 -16 2 C-14.30269476 1.72085435 -12.61230907 1.39215042 -10.9375 1 C-7.21454801 0.19288674 -3.82856692 -0.20150352 0 0 Z " fill="#C5C2B0" transform="translate(372,168)"/>
<path d="M0 0 C3.4375 0.75 3.4375 0.75 5.4375 2.75 C5.7642107 5.82108055 5.91888276 7.90050101 4.375 10.625 C1.29678089 12.41235303 -1.09156068 12.18386742 -4.5625 11.75 C-6.5625 10.125 -6.5625 10.125 -7.5625 7.75 C-7.4375 4.625 -7.4375 4.625 -6.5625 1.75 C-3.5625 -0.25 -3.5625 -0.25 0 0 Z M-3.5625 2.75 C-4.24208603 5.14719432 -4.24208603 5.14719432 -4.5625 7.75 C-3.9025 8.41 -3.2425 9.07 -2.5625 9.75 C0.04030568 9.42958603 0.04030568 9.42958603 2.4375 8.75 C2.480221 7.08388095 2.47813832 5.41617115 2.4375 3.75 C1.37104885 2.45366379 1.37104885 2.45366379 -1.125 2.6875 C-1.929375 2.708125 -2.73375 2.72875 -3.5625 2.75 Z " fill="#E7F0E2" transform="translate(335.5625,268.25)"/>
<path d="M0 0 C1.98 0.99 1.98 0.99 4 2 C4 1.34 4 0.68 4 0 C5.41681634 0.31182069 6.83344651 0.62448737 8.25 0.9375 C9.43335938 1.19853516 9.43335938 1.19853516 10.640625 1.46484375 C12.76878703 1.947556 14.88532842 2.46163178 17 3 C17 3.66 17 4.32 17 5 C11.97745369 5.2954439 9.10457614 4.98514628 5 2 C5 2.66 5 3.32 5 4 C6.04220703 4.39832031 6.04220703 4.39832031 7.10546875 4.8046875 C10.25676076 6.10603076 13.27000171 7.58703383 16.3125 9.125 C17.38113281 9.66382813 18.44976562 10.20265625 19.55078125 10.7578125 C20.76314453 11.37269531 20.76314453 11.37269531 22 12 C21.67 12.66 21.34 13.32 21 14 C13.63261041 11.86733459 5.4896439 8.4896439 0 3 C0 2.01 0 1.02 0 0 Z " fill="#D3CDBA" transform="translate(279,191)"/>
<path d="M0 0 C2.97 0.33 5.94 0.66 9 1 C9 1.66 9 2.32 9 3 C16.26 3.33 23.52 3.66 31 4 C31 3.34 31 2.68 31 2 C31.66 2.33 32.32 2.66 33 3 C33 3.99 33 4.98 33 6 C32.44538086 5.99476318 31.89076172 5.98952637 31.31933594 5.98413086 C28.79623557 5.96328969 26.27315336 5.95031718 23.75 5.9375 C22.87730469 5.92912109 22.00460937 5.92074219 21.10546875 5.91210938 C20.26113281 5.90888672 19.41679687 5.90566406 18.546875 5.90234375 C17.77182617 5.89710693 16.99677734 5.89187012 16.19824219 5.88647461 C14.00552018 5.99971492 12.11804137 6.45110705 10 7 C5.78374369 6.43179358 1.68133602 5.14744601 -2 3 C-1.34 2.34 -0.68 1.68 0 1 C0 0.67 0 0.34 0 0 Z " fill="#C1BAA4" transform="translate(294,185)"/>
<path d="M0 0 C-1.13927956 3.41783867 -1.81382173 3.87349509 -4.75 5.75 C-5.42546875 6.19859375 -6.1009375 6.6471875 -6.796875 7.109375 C-9.61370435 8.24809325 -11.05948988 7.61606527 -14 7 C-17.14921652 7.51659607 -17.14921652 7.51659607 -20.3125 8.4375 C-21.38113281 8.72496094 -22.44976562 9.01242188 -23.55078125 9.30859375 C-24.76314453 9.65083984 -24.76314453 9.65083984 -26 10 C-25.67 9.34 -25.34 8.68 -25 8 C-24.01 8 -23.02 8 -22 8 C-22 7.01 -22 6.02 -22 5 C-20.58461283 4.66127487 -19.16762037 4.32925376 -17.75 4 C-16.56664062 3.7215625 -16.56664062 3.7215625 -15.359375 3.4375 C-13 3 -13 3 -9 3 C-2.875 0 -2.875 0 0 0 Z " fill="#C7C2B3" transform="translate(372,192)"/>
<path d="M0 0 C2.14453125 0.20703125 2.14453125 0.20703125 4.8125 0.8125 C10.29853469 1.95029055 15.6592778 2.38746528 21.25 2.65625 C24 3 24 3 27 5 C27.33 5.66 27.66 6.32 28 7 C19.66856655 7.35258417 12.84231948 6.81062149 5 4 C3.62828567 3.5929265 2.25356293 3.19574049 0.875 2.8125 C-0.548125 2.4103125 -0.548125 2.4103125 -2 2 C-1.34 1.34 -0.68 0.68 0 0 Z " fill="#C7C3AF" transform="translate(291,166)"/>
<path d="M0 0 C3.4375 0.875 3.4375 0.875 5.4375 3.875 C5.79134949 6.70579592 5.8295891 8.24330089 4.3125 10.6875 C1.52416183 12.45344751 -0.32978968 12.33681576 -3.5625 11.875 C-6 10.1875 -6 10.1875 -7.5625 7.875 C-7.49310898 5.02996817 -6.89193496 3.42405826 -5.4375 1 C-3.5625 -0.125 -3.5625 -0.125 0 0 Z M-4.5625 3.875 C-4.2325 5.525 -3.9025 7.175 -3.5625 8.875 C-0.51336772 9.88611093 -0.51336772 9.88611093 2.4375 8.875 C3.18993555 6.94861988 3.18993555 6.94861988 3.4375 4.875 C2.6330029 2.71236927 2.6330029 2.71236927 0.5625 2.125 C-1.86259243 1.60697594 -1.86259243 1.60697594 -4.5625 3.875 Z " fill="#EAF2E5" transform="translate(365.5625,268.125)"/>
<path d="M0 0 C3.41021743 0.78697325 6.68885166 1.87119943 10 3 C10.33 2.67 10.66 2.34 11 2 C12.47916548 1.97908251 13.959138 2.00945425 15.4375 2.0625 C20.11085132 2.12954952 24.24913121 1.46723603 28.7734375 0.33984375 C31.17246807 -0.02632407 32.71185773 0.25295812 35 1 C29.36979423 4.01150541 24.33508918 4.47582404 17.98828125 4.7890625 C15.48542399 4.96573478 13.40189168 5.3468089 11 6 C4.728 6.56 4.728 6.56 1.5625 4.125 C0 2 0 2 0 0 Z " fill="#D8D3BF" transform="translate(324,178)"/>
<path d="M0 0 C2.27141109 0.11402064 4.54214552 0.24158505 6.8125 0.375 C8.07707031 0.44460937 9.34164063 0.51421875 10.64453125 0.5859375 C14 1 14 1 17 3 C19.33293334 3.04320247 21.6670134 3.04022391 24 3 C25.67557379 3.28520405 27.34817245 3.59955696 29 4 C29 4.33 29 4.66 29 5 C17.45 5 5.9 5 -6 5 C-6 4.67 -6 4.34 -6 4 C-1.545 3.505 -1.545 3.505 3 3 C2.01 2.01 1.02 1.02 0 0 Z " fill="#C9C5B4" transform="translate(312,180)"/>
<path d="M0 0 C0.66 0 1.32 0 2 0 C4.43986755 4.8797351 3.82050709 12.40443548 2.2109375 17.49609375 C1.24965606 19.43700169 0.21778192 21.21069588 -1 23 C-1.804375 24.2375 -1.804375 24.2375 -2.625 25.5 C-3.07875 25.995 -3.5325 26.49 -4 27 C-4.66 27 -5.32 27 -6 27 C-5.731875 26.34 -5.46375 25.68 -5.1875 25 C-4.795625 24.01 -4.40375 23.02 -4 22 C-3.2265625 20.2984375 -3.2265625 20.2984375 -2.4375 18.5625 C-0.17939687 12.64353269 -0.25509518 6.26302646 0 0 Z " fill="#E4E9DF" transform="translate(364,141)"/>
<path d="M0 0 C1.59375 1.3515625 1.59375 1.3515625 3.59375 4.3515625 C3.71875 7.0390625 3.71875 7.0390625 3.59375 9.3515625 C3.26375 8.3615625 2.93375 7.3715625 2.59375 6.3515625 C1.93375 6.3515625 1.27375 6.3515625 0.59375 6.3515625 C0.26375 5.3615625 -0.06625 4.3715625 -0.40625 3.3515625 C-6.83580482 -1.21479591 -13.82597945 -1.11017987 -21.40625 -0.6484375 C-21.73625 -1.6384375 -22.06625 -2.6284375 -22.40625 -3.6484375 C-14.15010201 -5.60384097 -7.03880784 -4.70215442 0 0 Z " fill="#E9F1E6" transform="translate(345.40625,137.6484375)"/>
<path d="M0 0 C3.625 0.375 3.625 0.375 7 1 C6.67 1.99 6.34 2.98 6 4 C4.68 4 3.36 4 2 4 C3.65 4.99 5.3 5.98 7 7 C6.67 8.65 6.34 10.3 6 12 C3.69 12 1.38 12 -1 12 C-1.33 11.01 -1.66 10.02 -2 9 C0.97 9.495 0.97 9.495 4 10 C4 9.34 4 8.68 4 8 C2.35 7.67 0.7 7.34 -1 7 C-1.625 4.625 -1.625 4.625 -2 2 C-1.34 1.34 -0.68 0.68 0 0 Z " fill="#E8EFE1" transform="translate(271,268)"/>
<path d="M0 0 C0.66 0.99 1.32 1.98 2 3 C-0.86177057 4.43088528 -2.93375773 3.59991697 -6 3 C-5.67 4.98 -5.34 6.96 -5 9 C-4.01 9 -3.02 9 -2 9 C-2.66 8.01 -3.32 7.02 -4 6 C-2.02 6 -0.04 6 2 6 C2.042721 7.66611905 2.04063832 9.33382885 2 11 C1 12 1 12 -2.375 12.25 C-6 12 -6 12 -7.9375 10.875 C-9.52225401 8.07837528 -9.45947423 6.1506804 -9 3 C-6.31350715 0.01500794 -3.94131564 -0.622313 0 0 Z " fill="#EBF2E4" transform="translate(385,268)"/>
<path d="M0 0 C-0.23771118 0.84933105 -0.23771118 0.84933105 -0.48022461 1.71582031 C-1.00785848 4.0345345 -1.204156 6.17358397 -1.31640625 8.546875 C-1.35830078 9.39121094 -1.40019531 10.23554688 -1.44335938 11.10546875 C-1.48267578 11.97816406 -1.52199219 12.85085937 -1.5625 13.75 C-1.62727539 15.08224609 -1.62727539 15.08224609 -1.69335938 16.44140625 C-1.79913615 18.62745963 -1.90122546 20.81362089 -2 23 C-2.33 22.34 -2.66 21.68 -3 21 C-3.66 21 -4.32 21 -5 21 C-5.33 14.07 -5.66 7.14 -6 0 C-3 -1 -3 -1 0 0 Z " fill="#E9ECE4" transform="translate(225,234)"/>
<path d="M0 0 C3.125 0.1875 3.125 0.1875 6.125 2.1875 C5.25 7.0625 5.25 7.0625 4.125 8.1875 C2.45882885 8.22813832 0.79111905 8.230221 -0.875 8.1875 C-0.875 9.5075 -0.875 10.8275 -0.875 12.1875 C-1.865 11.8575 -2.855 11.5275 -3.875 11.1875 C-3.90188151 9.54175434 -3.92134123 7.89588587 -3.9375 6.25 C-3.94910156 5.33347656 -3.96070313 4.41695313 -3.97265625 3.47265625 C-3.82625485 0.04686351 -3.47040706 0.2263309 0 0 Z M-0.875 3.1875 C-0.875 4.1775 -0.875 5.1675 -0.875 6.1875 C0.445 5.8575 1.765 5.5275 3.125 5.1875 C3.125 4.5275 3.125 3.8675 3.125 3.1875 C1.805 3.1875 0.485 3.1875 -0.875 3.1875 Z " fill="#EFF6EB" transform="translate(258.875,267.8125)"/>
<path d="M0 0 C9.65355958 -0.75714193 18.52970814 2.56136357 27 7 C27 7.99 27 8.98 27 10 C25.9790625 9.566875 25.9790625 9.566875 24.9375 9.125 C21.90250143 7.90374133 21.90250143 7.90374133 18.25 7 C17.1775 6.67 16.105 6.34 15 6 C14.67 5.34 14.34 4.68 14 4 C11.22014208 3.64233098 8.46375792 3.55590567 5.6640625 3.44140625 C2.71085685 2.95209212 1.81402702 2.31380998 0 0 Z " fill="#ECEEE5" transform="translate(333,79)"/>
<path d="M0 0 C0.66 0 1.32 0 2 0 C2.33 1.65 2.66 3.3 3 5 C4.32 5 5.64 5 7 5 C7.33 3.35 7.66 1.7 8 0 C8.66 0.33 9.32 0.66 10 1 C10 4.63 10 8.26 10 12 C9.01 11.67 8.02 11.34 7 11 C7 9.68 7 8.36 7 7 C5.68 7.33 4.36 7.66 3 8 C2.67 9.32 2.34 10.64 2 12 C1.34 12 0.68 12 0 12 C0 8.04 0 4.08 0 0 Z " fill="#EBF4E8" transform="translate(313,268)"/>
<path d="M0 0 C-0.33 0.66 -0.66 1.32 -1 2 C-7.54153491 3.47532489 -14.26760072 3.11179431 -20.9375 3.0625 C-22.67870117 3.05573242 -22.67870117 3.05573242 -24.45507812 3.04882812 C-27.30343934 3.03710647 -30.15169222 3.0206976 -33 3 C-33 2.34 -33 1.68 -33 1 C-17.63668287 -0.14712768 -17.63668287 -0.14712768 -10.05078125 0.0625 C-0.69282815 -0.22269476 -0.69282815 -0.22269476 0 0 Z " fill="#D8DACC" transform="translate(349,206)"/>
<path d="M0 0 C0.33 1.32 0.66 2.64 1 4 C0.195625 3.814375 -0.60875 3.62875 -1.4375 3.4375 C-2.7059375 3.2209375 -2.7059375 3.2209375 -4 3 C-5.29633621 4.06645115 -5.29633621 4.06645115 -5.0625 6.5625 C-5.041875 7.366875 -5.02125 8.17125 -5 9 C-1.535 8.505 -1.535 8.505 2 8 C1.67 9.32 1.34 10.64 1 12 C-5.3782235 12.36103152 -5.3782235 12.36103152 -7.9375 10.875 C-9.50422245 8.11019567 -9.38976435 6.11811483 -9 3 C-6.77089201 -0.71517998 -4.03410755 -0.2689405 0 0 Z " fill="#E4EDDF" transform="translate(306,268)"/>
<path d="M0 0 C1.6266848 0.28211877 3.25132896 0.57602375 4.875 0.875 C5.77992188 1.03742188 6.68484375 1.19984375 7.6171875 1.3671875 C10 2 10 2 12 4 C12 4.33 12 4.66 12 5 C16.29 5.99 20.58 6.98 25 8 C25 8.33 25 8.66 25 9 C17.59201864 8.65861837 10.96897757 6.96848206 3.90625 4.7421875 C1.08605296 3.68421516 1.08605296 3.68421516 -1 5 C-0.67 3.35 -0.34 1.7 0 0 Z " fill="#B7B4A1" transform="translate(279,163)"/>
<path d="M0 0 C7.18216433 2.27435204 14.0758202 5.03584181 21 8 C21 8.99 21 9.98 21 11 C19.35 11.33 17.7 11.66 16 12 C16 11.34 16 10.68 16 10 C10.72 7.36 5.44 4.72 0 2 C0 1.34 0 0.68 0 0 Z " fill="#C1B6A3" transform="translate(284,193)"/>
<path d="M0 0 C-3.59902178 2.39934786 -7.19061411 3.6365106 -11.25 5.0625 C-12.35794922 5.4656543 -12.35794922 5.4656543 -13.48828125 5.87695312 C-18.0088333 7.47549049 -22.23090138 8.48902515 -27 9 C-26.4375 7.0625 -26.4375 7.0625 -25 5 C-22.66894724 4.65107512 -20.33508007 4.32086857 -18 4 C-14.69597472 3.04243872 -11.48114701 1.82794645 -8.25390625 0.640625 C-3.31138393 -1.10379464 -3.31138393 -1.10379464 0 0 Z " fill="#D3D4BD" transform="translate(387,159)"/>
<path d="M0 0 C6.93 0 13.86 0 21 0 C21 1.32 21 2.64 21 4 C19.906875 3.814375 18.81375 3.62875 17.6875 3.4375 C14.06375867 2.7421932 14.06375867 2.7421932 11 4 C10.34 3.34 9.68 2.68 9 2 C6.76655935 2.19890456 6.76655935 2.19890456 4.375 2.875 C3.14910156 3.18050781 3.14910156 3.18050781 1.8984375 3.4921875 C1.27195312 3.65976563 0.64546875 3.82734375 0 4 C0 2.68 0 1.36 0 0 Z " fill="#EEF3EC" transform="translate(435,234)"/>
<path d="M0 0 C3.63 0 7.26 0 11 0 C10.67 0.66 10.34 1.32 10 2 C7.4375 2.625 7.4375 2.625 5 3 C5 3.66 5 4.32 5 5 C1.39006828 6.13480527 -1.9842327 6.10015767 -5.75 6.0625 C-6.92046875 6.05347656 -8.0909375 6.04445312 -9.296875 6.03515625 C-10.18890625 6.02355469 -11.0809375 6.01195312 -12 6 C-12 5.67 -12 5.34 -12 5 C-8.535 4.505 -8.535 4.505 -5 4 C-5 3.34 -5 2.68 -5 2 C-3.35 1.67 -1.7 1.34 0 1 C0 0.67 0 0.34 0 0 Z " fill="#B5AD97" transform="translate(331,190)"/>
<path d="M0 0 C2.96630756 1.52323902 4.72171363 2.52812311 6.4375 5.4375 C7.89171737 8.24824497 7.89171737 8.24824497 11.0625 9.9375 C14.51254939 12.3598751 15.08359776 13.96783016 16 18 C9.31851737 13.52140401 4.20704182 8.0989888 -1 2 C-0.67 1.34 -0.34 0.68 0 0 Z " fill="#E8E5D2" transform="translate(263,175)"/>
<path d="M0 0 C3.87103048 3.87103048 4.0769716 10.67257193 4.3125 16 C4.209375 16.99 4.10625 17.98 4 19 C3.01 19.66 2.02 20.32 1 21 C0.06145994 13.96094956 -0.10808032 7.09727428 0 0 Z " fill="#E6E9DD" transform="translate(393,137)"/>
<path d="M0 0 C4.455 1.98 4.455 1.98 9 4 C9 4.66 9 5.32 9 6 C9.99 6.33 10.98 6.66 12 7 C10 8 10 8 8 8 C9.98 10.31 11.96 12.62 14 15 C13.67 15.66 13.34 16.32 13 17 C12.443125 16.278125 11.88625 15.55625 11.3125 14.8125 C9.0270024 11.92913577 9.0270024 11.92913577 6.25 9.3125 C4 7 4 7 4 5 C3.34 4.505 2.68 4.01 2 3.5 C1.34 3.005 0.68 2.51 0 2 C0 1.34 0 0.68 0 0 Z " fill="#BBBDAD" transform="translate(366,95)"/>
<path d="M0 0 C1.65 0.99 3.3 1.98 5 3 C5.99 2.01 6.98 1.02 8 0 C8.33 0.99 8.66 1.98 9 3 C8.01 4.485 8.01 4.485 7 6 C6.29835358 7.98799818 5.62627128 9.98698517 5 12 C4.34 12 3.68 12 3 12 C2.71125 10.9275 2.4225 9.855 2.125 8.75 C1.27179891 5.90599636 0.4363497 3.56491017 -1 1 C-0.67 0.67 -0.34 0.34 0 0 Z " fill="#F0F8E8" transform="translate(393,268)"/>
<path d="M0 0 C0.59167969 0.08378906 1.18335938 0.16757813 1.79296875 0.25390625 C2.58316406 0.35574219 3.37335938 0.45757812 4.1875 0.5625 C4.96480469 0.66691406 5.74210937 0.77132812 6.54296875 0.87890625 C8.98344311 1.10785158 8.98344311 1.10785158 11.25 0.5 C15.15511802 -0.21002146 18.87046695 0.15002567 22.8125 0.4375 C23.99489258 0.51581055 23.99489258 0.51581055 25.20117188 0.59570312 C27.13451529 0.72459269 29.06732164 0.86149494 31 1 C30.67 1.66 30.34 2.32 30 3 C24.72 3 19.44 3 14 3 C14 3.33 14 3.66 14 4 C9.02906176 3.58846263 4.55491614 3.20399168 0 1 C0 0.67 0 0.34 0 0 Z " fill="#E5E1CB" transform="translate(301,196)"/>
<path d="M0 0 C2.97157424 3.37678891 3.90077479 6.68161524 5 11 C5.33 11.99 5.66 12.98 6 14 C5.72428861 16.00875442 5.39764263 18.01178687 5 20 C1.90407165 16.4912812 0.25805377 13.50802601 -1 9 C-0.01 9 0.98 9 2 9 C1.34 6.03 0.68 3.06 0 0 Z " fill="#CFD0BA" transform="translate(384,112)"/>
<path d="M0 0 C0.66 0.99 1.32 1.98 2 3 C2.99 2.01 3.98 1.02 5 0 C5.66 0.33 6.32 0.66 7 1 C5.02 3.31 3.04 5.62 1 8 C0.34 7.67 -0.32 7.34 -1 7 C-1.33 7 -1.66 7 -2 7 C-2.99 6.67 -3.98 6.34 -5 6 C-5.66 6 -6.32 6 -7 6 C-6.67 4.68 -6.34 3.36 -6 2 C-4.02 2 -2.04 2 0 2 C0 1.34 0 0.68 0 0 Z " fill="#CBC4B2" transform="translate(389,164)"/>
<path d="M0 0 C0.33 0 0.66 0 1 0 C1.33 4.95 1.66 9.9 2 15 C0.02 15.99 0.02 15.99 -2 17 C-2 12.05 -2 7.1 -2 2 C-1.34 2 -0.68 2 0 2 C0 1.34 0 0.68 0 0 Z " fill="#CBCBB9" transform="translate(264,141)"/>
<path d="M0 0 C-1 3 -1 3 -3.00390625 4.1328125 C-8.40783889 6.22838333 -13.21357849 7.57137618 -19 8 C-19 7.34 -19 6.68 -19 6 C-17.35 6 -15.7 6 -14 6 C-14 5.34 -14 4.68 -14 4 C-12.23141309 3.32739649 -10.46003984 2.66211605 -8.6875 2 C-7.70136719 1.62875 -6.71523438 1.2575 -5.69921875 0.875 C-3 0 -3 0 0 0 Z " fill="#E2E7DD" transform="translate(321,144)"/>
<path d="M0 0 C0.7425 0.185625 1.485 0.37125 2.25 0.5625 C5.02319878 1.00369071 6.35307668 0.68307699 9 0 C11.25 0.4375 11.25 0.4375 13 1 C13 1.66 13 2.32 13 3 C13.66 3.33 14.32 3.66 15 4 C14.01 4 13.02 4 12 4 C11.67 4.99 11.34 5.98 11 7 C9.35063087 6.21572648 7.70558873 5.42234741 6.0625 4.625 C5.14597656 4.18414062 4.22945313 3.74328125 3.28515625 3.2890625 C1 2 1 2 0 0 Z " fill="#CAC3AF" transform="translate(266,161)"/>
<path d="M0 0 C1.98 0 3.96 0 6 0 C6.33 1.32 6.66 2.64 7 4 C7.7425 3.938125 8.485 3.87625 9.25 3.8125 C12.45383006 4.03094296 13.64031256 4.90250005 16 7 C9.37209302 8.68710359 9.37209302 8.68710359 5.46484375 6.73046875 C3.24117573 5.22570449 1.09768793 3.67523689 -1 2 C-0.67 1.34 -0.34 0.68 0 0 Z " fill="#EDF2EB" transform="translate(287,149)"/>
<path d="M0 0 C1.98 0.99 1.98 0.99 4 2 C4 2.66 4 3.32 4 4 C4.66 4 5.32 4 6 4 C6.66 2.68 7.32 1.36 8 0 C8.66 0.33 9.32 0.66 10 1 C9.566875 2.051875 9.566875 2.051875 9.125 3.125 C7.97866412 6.05452503 6.97374346 9.00921653 6 12 C5.34 12 4.68 12 4 12 C3.566875 10.4221875 3.566875 10.4221875 3.125 8.8125 C2.22774807 5.77181289 1.23576581 2.91287656 0 0 Z " fill="#EDF5E6" transform="translate(282,268)"/>
<path d="M0 0 C8.58 0 17.16 0 26 0 C22.73906361 3.26093639 18.46026599 2.84996047 14 3 C10.375 2.5625 10.375 2.5625 8 2 C7.67 2.66 7.34 3.32 7 4 C4.97954558 3.39816251 2.97888961 2.72693904 1 2 C0.67 1.34 0.34 0.68 0 0 Z " fill="#BFB6A3" transform="translate(327,178)"/>
<path d="M0 0 C0 0.99 0 1.98 0 3 C-1.43657245 3.33730842 -2.87430093 3.66969591 -4.3125 4 C-5.51326172 4.2784375 -5.51326172 4.2784375 -6.73828125 4.5625 C-9 5 -9 5 -12 5 C-11.67 3.35 -11.34 1.7 -11 0 C-9.54263913 -0.19491452 -8.08405407 -0.38069358 -6.625 -0.5625 C-5.81289063 -0.66691406 -5.00078125 -0.77132812 -4.1640625 -0.87890625 C-2 -1 -2 -1 0 0 Z " fill="#DCDFD9" transform="translate(310,153)"/>
<path d="M0 0 C0 0.66 0 1.32 0 2 C-1.91666667 2.47916667 -3.83333333 2.95833333 -5.75 3.4375 C-6.81734375 3.70433594 -7.8846875 3.97117187 -8.984375 4.24609375 C-11.6875 4.921875 -11.6875 4.921875 -14.390625 5.59765625 C-14.92171875 5.73042969 -15.4528125 5.86320312 -16 6 C-16.33 5.34 -16.66 4.68 -17 4 C-11.01990022 0.17938069 -6.96504398 -0.11608407 0 0 Z " fill="#EBF3E8" transform="translate(358,115)"/>
<path d="M0 0 C0.845625 0.515625 1.69125 1.03125 2.5625 1.5625 C6.64010591 3.26768065 8.73283123 2.86923808 13 2 C14.32 2 15.64 2 17 2 C13.27148129 5.89799684 13.27148129 5.89799684 9.90625 6.16796875 C8.71515625 6.17763672 8.71515625 6.17763672 7.5 6.1875 C6.7059375 6.20167969 5.911875 6.21585937 5.09375 6.23046875 C3 6 3 6 1 4 C0.375 1.875 0.375 1.875 0 0 Z " fill="#E6EDE4" transform="translate(242,253)"/>
<path d="M0 0 C5.08774621 2.08135072 7.23187046 4.28392744 10 9 C10.33 9.33 10.66 9.66 11 10 C11.04063832 11.66617115 11.042721 13.33388095 11 15 C8.18662344 12.27376342 5.66417643 9.459781 3.25 6.375 C2.32960938 5.21097656 2.32960938 5.21097656 1.390625 4.0234375 C0 2 0 2 0 0 Z " fill="#9A9A8B" transform="translate(373,101)"/>
<path d="M0 0 C1.485 0.99 1.485 0.99 3 2 C3.1875 5.625 3.1875 5.625 3 9 C4.98 9 6.96 9 9 9 C9 9.66 9 10.32 9 11 C6.03 11 3.06 11 0 11 C0 7.37 0 3.74 0 0 Z " fill="#E4ECDE" transform="translate(346,269)"/>
<path d="M0 0 C-0.33 0.33 -0.66 0.66 -1 1 C-0.34 1.66 0.32 2.32 1 3 C-2.08888522 5.05925681 -2.70935927 5.2390374 -6.1875 5.125 C-8.0746875 5.063125 -8.0746875 5.063125 -10 5 C-10 4.01 -10 3.02 -10 2 C-10.33 1.34 -10.66 0.68 -11 0 C-3.57142857 -1.28571429 -3.57142857 -1.28571429 0 0 Z " fill="#C4C0AC" transform="translate(343,202)"/>
<path d="M0 0 C0 0.99 0 1.98 0 3 C-7.42640842 4.60881575 -14.40501039 5.26442904 -22 5 C-22 4.67 -22 4.34 -22 4 C-19.36 4 -16.72 4 -14 4 C-14 3.34 -14 2.68 -14 2 C-12.04200486 1.66468585 -10.08359226 1.33180857 -8.125 1 C-6.48917969 0.7215625 -6.48917969 0.7215625 -4.8203125 0.4375 C-2 0 -2 0 0 0 Z " fill="#DBD9C5" transform="translate(358,166)"/>
<path d="M0 0 C1.12148438 0.30744141 1.12148438 0.30744141 2.265625 0.62109375 C3.25046875 0.89050781 4.2353125 1.15992188 5.25 1.4375 C6.71179688 1.83775391 6.71179688 1.83775391 8.203125 2.24609375 C10.46372653 2.85544584 12.72622009 3.44238255 15 4 C15 4.66 15 5.32 15 6 C9.1977825 6.36263859 5.36000789 5.25684543 0 3 C0 2.01 0 1.02 0 0 Z " fill="#C8C1AE" transform="translate(279,166)"/>
<path d="M0 0 C0.66 0 1.32 0 2 0 C2 1.98 2 3.96 2 6 C2.66 5.01 3.32 4.02 4 3 C4.99 3.33 5.98 3.66 7 4 C7 4.99 7 5.98 7 7 C6.34 7 5.68 7 5 7 C5 7.66 5 8.32 5 9 C1 9 1 9 -0.8125 7.8125 C-2 6 -2 6 -1.75 3.375 C-1 1 -1 1 0 0 Z " fill="#C8BEA8" transform="translate(257,156)"/>
<path d="M0 0 C0.99 0 1.98 0 3 0 C2.88541307 1.43836751 2.75790884 2.87570966 2.625 4.3125 C2.55539062 5.11300781 2.48578125 5.91351563 2.4140625 6.73828125 C2 9 2 9 0 12 C-0.99 11.67 -1.98 11.34 -3 11 C-2.690625 9.9275 -2.38125 8.855 -2.0625 7.75 C-1.33187904 5.17133778 -0.62517096 2.60487898 0 0 Z " fill="#F9FDF7" transform="translate(260,243)"/>
<path d="M0 0 C1.64696604 0.4752588 3.29254728 0.95531891 4.9375 1.4375 C6.31228516 1.83775391 6.31228516 1.83775391 7.71484375 2.24609375 C10 3 10 3 11 4 C12.155 4.144375 13.31 4.28875 14.5 4.4375 C15.655 4.623125 16.81 4.80875 18 5 C18.33 5.66 18.66 6.32 19 7 C16.36 6.67 13.72 6.34 11 6 C10.67 6.66 10.34 7.32 10 8 C9.01 7.34 8.02 6.68 7 6 C7 5.34 7 4.68 7 4 C6.21625 3.896875 5.4325 3.79375 4.625 3.6875 C2 3 2 3 0 0 Z " fill="#DDD5C1" transform="translate(264,168)"/>
<path d="M0 0 C2.79224073 -0.08071788 5.58216566 -0.14035408 8.375 -0.1875 C9.1690625 -0.21263672 9.963125 -0.23777344 10.78125 -0.26367188 C12.85586148 -0.29004405 14.93100865 -0.15486462 17 0 C17.66 0.99 18.32 1.98 19 3 C12.29481414 3.19818283 6.34823202 3.30844801 0 1 C0 0.67 0 0.34 0 0 Z " fill="#C8BFB0" transform="translate(314,198)"/>
<path d="M0 0 C2.7782331 0.34654493 5.39707751 0.79078171 8.125 1.375 C8.87910156 1.52710938 9.63320313 1.67921875 10.41015625 1.8359375 C12.27553701 2.21373613 14.13806734 2.60555868 16 3 C16 3.66 16 4.32 16 5 C9.74892565 4.57045059 3.95795479 3.98598493 -2 2 C-1.34 1.34 -0.68 0.68 0 0 Z " fill="#CECCBB" transform="translate(291,166)"/>
<path d="M0 0 C0 0.66 0 1.32 0 2 C1.11375 1.938125 2.2275 1.87625 3.375 1.8125 C5.169375 1.9053125 5.169375 1.9053125 7 2 C7.99 3.485 7.99 3.485 9 5 C7.68 5 6.36 5 5 5 C5.33 5.66 5.66 6.32 6 7 C4.35 6.67 2.7 6.34 1 6 C1 5.34 1 4.68 1 4 C-0.98 3.34 -2.96 2.68 -5 2 C-2 0 -2 0 0 0 Z " fill="#D8D6C9" transform="translate(347,83)"/>
<path d="M0 0 C0.66 0.33 1.32 0.66 2 1 C0.25 4.875 0.25 4.875 -2 6 C-4.3329866 6.04022391 -6.66706666 6.04320247 -9 6 C-9.33 4.68 -9.66 3.36 -10 2 C-7.03 2.33 -4.06 2.66 -1 3 C-0.67 2.01 -0.34 1.02 0 0 Z " fill="#F1F6F0" transform="translate(420,253)"/>
<path d="M0 0 C4.8333472 -0.08333357 9.23692563 0.04738513 14 1 C14 1.33 14 1.66 14 2 C6.64206267 2.91160286 -0.58982977 3.11459026 -8 3 C-8 2.67 -8 2.34 -8 2 C-5.36 2 -2.72 2 0 2 C0 1.34 0 0.68 0 0 Z " fill="#D2CFBF" transform="translate(326,204)"/>
<path d="M0 0 C1.09570312 0.00902344 2.19140625 0.01804688 3.3203125 0.02734375 C4.16335938 0.03894531 5.00640625 0.05054688 5.875 0.0625 C5.875 0.7225 5.875 1.3825 5.875 2.0625 C3.895 2.0625 1.915 2.0625 -0.125 2.0625 C-0.455 2.7225 -0.785 3.3825 -1.125 4.0625 C-3.435 3.7325 -5.745 3.4025 -8.125 3.0625 C-8.125 2.4025 -8.125 1.7425 -8.125 1.0625 C-5.36047967 -0.31976016 -3.0788637 -0.03275387 0 0 Z " fill="#B4AD9A" transform="translate(314.125,191.9375)"/>
<path d="M0 0 C-3.28491373 2.18994248 -4.83095639 2.35277339 -8.6875 2.625 C-10.17830078 2.73714844 -10.17830078 2.73714844 -11.69921875 2.8515625 C-12.83810547 2.92503906 -12.83810547 2.92503906 -14 3 C-14.33 2.01 -14.66 1.02 -15 0 C-9.77254141 -1.2063366 -5.23471686 -0.75612577 0 0 Z " fill="#E3EADF" transform="translate(338,134)"/>
<path d="M0 0 C1.98 0 3.96 0 6 0 C5.67 0.763125 5.34 1.52625 5 2.3125 C3.66054332 7.25174651 3.83712342 11.91463109 4 17 C3.34 17.33 2.68 17.66 2 18 C1.93941406 16.95199219 1.87882812 15.90398437 1.81640625 14.82421875 C1.73198262 13.44529952 1.64733553 12.06639395 1.5625 10.6875 C1.52318359 9.99720703 1.48386719 9.30691406 1.44335938 8.59570312 C1.25072585 5.52838465 0.97677283 2.93031848 0 0 Z " fill="#EFF5EC" transform="translate(359,234)"/>
<path d="M0 0 C2.27608233 3.4141235 2.16488977 4.15710661 1.6875 8.0625 C1.58824219 8.94035156 1.48898437 9.81820312 1.38671875 10.72265625 C1 13 1 13 0 15 C-0.66 15 -1.32 15 -2 15 C-1.85816304 13.24967156 -1.71136571 11.49974466 -1.5625 9.75 C-1.48128906 8.77546875 -1.40007812 7.8009375 -1.31640625 6.796875 C-1.04925416 4.43538247 -0.64628032 2.28098935 0 0 Z " fill="#E5EBDB" transform="translate(264,128)"/>
<path d="M0 0 C0.66 0.66 1.32 1.32 2 2 C0.35 2.33 -1.3 2.66 -3 3 C-3 3.33 -3 3.66 -3 4 C-5.64 4 -8.28 4 -11 4 C-11.33 3.01 -11.66 2.02 -12 1 C-7.94638511 0.22788288 -4.12876411 -0.28150664 0 0 Z " fill="#C2BCA9" transform="translate(326,193)"/>
<path d="M0 0 C0.99 0.33 1.98 0.66 3 1 C2.67 1.99 2.34 2.98 2 4 C1.34 4 0.68 4 0 4 C0 4.66 0 5.32 0 6 C-3.3 6.33 -6.6 6.66 -10 7 C-10.33 6.34 -10.66 5.68 -11 5 C-8.69 5 -6.38 5 -4 5 C-3.67 4.01 -3.34 3.02 -3 2 C-2.01 2.33 -1.02 2.66 0 3 C0 2.01 0 1.02 0 0 Z " fill="#DBDFD9" transform="translate(317,152)"/>
<path d="M0 0 C2.62701598 0.90303674 3.7440848 1.51827727 5.0625 4 C5.371875 4.66 5.68125 5.32 6 6 C6.99 6.66 7.98 7.32 9 8 C9 8.66 9 9.32 9 10 C5.41379775 8.34482973 2.18469471 6.33544279 -1 4 C-1.33 3.01 -1.66 2.02 -2 1 C-1.34 0.67 -0.68 0.34 0 0 Z " fill="#D8D8C2" transform="translate(362,92)"/>
<path d="M0 0 C-4.75 4 -4.75 4 -7 4 C-7 4.66 -7 5.32 -7 6 C-9 7.625 -9 7.625 -11 9 C-11.66 8.67 -12.32 8.34 -13 8 C-10.91933579 3.31850554 -8.2545371 1.75547248 -3.83984375 -0.3984375 C-2 -1 -2 -1 0 0 Z " fill="#C0B9A6" transform="translate(383,181)"/>
<path d="M0 0 C3.63 0 7.26 0 11 0 C11 0.33 11 0.66 11 1 C13.64 1 16.28 1 19 1 C19 1.66 19 2.32 19 3 C16.58265458 3.08117951 14.16805051 3.14056926 11.75 3.1875 C11.06808594 3.21263672 10.38617188 3.23777344 9.68359375 3.26367188 C4.97657186 3.33222074 3.9791154 2.98433655 0 0 Z " fill="#B6B2A1" transform="translate(336,183)"/>
<path d="M0 0 C1.67542976 0.28604898 3.34385343 0.61781233 5 1 C4 4 4 4 2.22265625 5.1328125 C1.50980469 5.46023437 0.79695313 5.78765625 0.0625 6.125 C-0.64777344 6.45757812 -1.35804688 6.79015625 -2.08984375 7.1328125 C-2.72019531 7.41898438 -3.35054688 7.70515625 -4 8 C-4.99 8.495 -4.99 8.495 -6 9 C-6 7.68 -6 6.36 -6 5 C-4.02 4.67 -2.04 4.34 0 4 C-0.33 3.01 -0.66 2.02 -1 1 C-0.67 0.67 -0.34 0.34 0 0 Z " fill="#EDF6EC" transform="translate(372,122)"/>
<path d="M0 0 C3.71599191 -0.20086443 4.77208445 -0.1519437 8 2 C7.67 3.65 7.34 5.3 7 7 C5.68 7.33 4.36 7.66 3 8 C3.66 7.01 4.32 6.02 5 5 C5 4.34 5 3.68 5 3 C3.35 3 1.7 3 0 3 C0 2.01 0 1.02 0 0 Z " fill="#E4ECE2" transform="translate(257,268)"/>
<path d="M0 0 C-0.33 1.32 -0.66 2.64 -1 4 C-1.33 3.67 -1.66 3.34 -2 3 C-3.66608987 2.95615553 -5.33380554 2.9603287 -7 3 C-7.99 3 -8.98 3 -10 3 C-9.67 2.01 -9.34 1.02 -9 0 C-5.93109813 -1.53445094 -3.29905734 -0.54984289 0 0 Z " fill="#EEF4E8" transform="translate(422,234)"/>
<path d="M0 0 C0.33 1.32 0.66 2.64 1 4 C1.66 4 2.32 4 3 4 C3 7.63 3 11.26 3 15 C2.01 15.495 2.01 15.495 1 16 C0.67 10.72 0.34 5.44 0 0 Z " fill="#D4CDB8" transform="translate(389,133)"/>
<path d="M0 0 C4.5076467 0.53031138 7.41954788 2.25221116 11 5 C11 5.66 11 6.32 11 7 C7.05123902 6.43589129 4.24365824 5.34264206 1 3 C0.67 2.01 0.34 1.02 0 0 Z " fill="#F6F8EF" transform="translate(359,87)"/>
<path d="M0 0 C2.9375 0.375 2.9375 0.375 6 1 C6.33 1.66 6.66 2.32 7 3 C7.99 3.33 8.98 3.66 10 4 C10 4.66 10 5.32 10 6 C10.66 6.33 11.32 6.66 12 7 C7.48292068 6.4685789 4.61312423 4.70984317 1 2 C0.67 1.34 0.34 0.68 0 0 Z " fill="#C8C0AE" transform="translate(285,186)"/>
<path d="M0 0 C-2.66315194 2.66315194 -4.65344068 2.94426493 -8.359375 3.09765625 C-9.14828125 3.08605469 -9.9371875 3.07445312 -10.75 3.0625 C-11.54921875 3.05347656 -12.3484375 3.04445312 -13.171875 3.03515625 C-13.77515625 3.02355469 -14.3784375 3.01195312 -15 3 C-12.22199328 1.14799552 -10.66558555 0.5142048 -7.5 -0.1875 C-6.7265625 -0.36667969 -5.953125 -0.54585937 -5.15625 -0.73046875 C-3 -1 -3 -1 0 0 Z " fill="#D4D1BC" transform="translate(375,175)"/>
<path d="M0 0 C1.175625 0.7115625 1.175625 0.7115625 2.375 1.4375 C3.88948678 2.33898023 5.4235897 3.21179485 7 4 C6.67 4.66 6.34 5.32 6 6 C3.8520106 5.55187982 1.70663439 5.09121652 -0.4375 4.625 C-1.63246094 4.36976562 -2.82742188 4.11453125 -4.05859375 3.8515625 C-5.51458984 3.43003906 -5.51458984 3.43003906 -7 3 C-7.33 2.34 -7.66 1.68 -8 1 C-2.25 0.875 -2.25 0.875 0 2 C0 1.34 0 0.68 0 0 Z " fill="#EAEADE" transform="translate(341,83)"/>
<path d="M0 0 C-0.33 0.66 -0.66 1.32 -1 2 C-3.72265625 2.4140625 -3.72265625 2.4140625 -7.0625 2.625 C-8.16722656 2.69976562 -9.27195312 2.77453125 -10.41015625 2.8515625 C-11.26480469 2.90054688 -12.11945313 2.94953125 -13 3 C-13 2.34 -13 1.68 -13 1 C-11.58622218 0.63447197 -10.16879424 0.28304505 -8.75 -0.0625 C-7.96109375 -0.25972656 -7.1721875 -0.45695313 -6.359375 -0.66015625 C-3.89605178 -1.01497267 -2.34395868 -0.76877544 0 0 Z " fill="#E0E0D2" transform="translate(349,206)"/>
<path d="M0 0 C5.66442374 0.36504064 10.00703705 1.0554321 15 4 C12.57028208 4.8677564 11.4619665 5.20863003 9.0625 4.125 C8.0415625 3.568125 8.0415625 3.568125 7 3 C5.700625 2.7525 5.700625 2.7525 4.375 2.5 C2 2 2 2 0 0 Z " fill="#DBD6C5" transform="translate(270,180)"/>
<path d="M0 0 C-0.33 1.32 -0.66 2.64 -1 4 C-2.62463842 4.05395478 -4.24978541 4.09277195 -5.875 4.125 C-6.77992188 4.14820313 -7.68484375 4.17140625 -8.6171875 4.1953125 C-11 4 -11 4 -13 2 C-11.20873548 1.66451233 -9.41697413 1.33167645 -7.625 1 C-6.62726563 0.814375 -5.62953125 0.62875 -4.6015625 0.4375 C-2 0 -2 0 0 0 Z " fill="#CAC9B4" transform="translate(356,175)"/>
<path d="M0 0 C4.82360189 -0.19294408 8.49646738 0.24252386 13 2 C13 2.33 13 2.66 13 3 C9.04 3 5.08 3 1 3 C0.67 2.01 0.34 1.02 0 0 Z " fill="#DAE0D9" transform="translate(314,163)"/>
<path d="M0 0 C3.96 0 7.92 0 12 0 C12.33 0.66 12.66 1.32 13 2 C8.38 2 3.76 2 -1 2 C-0.67 1.34 -0.34 0.68 0 0 Z " fill="#E4EDDE" transform="translate(411,274)"/>
<path d="M0 0 C4.05281712 1.22527029 7.44360764 2.69880494 11 5 C8.5332355 5.88336837 7.36140628 6.1312406 4.859375 5.22265625 C4.16328125 4.83980469 3.4671875 4.45695313 2.75 4.0625 C2.04359375 3.68222656 1.3371875 3.30195313 0.609375 2.91015625 C0.07828125 2.60980469 -0.4528125 2.30945313 -1 2 C-0.67 1.34 -0.34 0.68 0 0 Z " fill="#D7D3BF" transform="translate(278,176)"/>
<path d="M0 0 C3.63 0 7.26 0 11 0 C11 0.66 11 1.32 11 2 C12.65 2 14.3 2 16 2 C16 2.33 16 2.66 16 3 C12.7 3 9.4 3 6 3 C6 2.34 6 1.68 6 1 C4.02 1 2.04 1 0 1 C0 0.67 0 0.34 0 0 Z " fill="#E8E5D4" transform="translate(313,175)"/>
<path d="M0 0 C3.3 0 6.6 0 10 0 C9.67 0.66 9.34 1.32 9 2 C6.49609375 2.6328125 6.49609375 2.6328125 3.4375 3.125 C1.91962891 3.37636719 1.91962891 3.37636719 0.37109375 3.6328125 C-0.80259766 3.81457031 -0.80259766 3.81457031 -2 4 C-1.34 2.68 -0.68 1.36 0 0 Z " fill="#DBD8C3" transform="translate(362,164)"/>
<path d="M0 0 C0.66 0.33 1.32 0.66 2 1 C2.125 7.75 2.125 7.75 1 10 C0.01 9.67 -0.98 9.34 -2 9 C-2 5.61976483 -1.12544378 3.16531063 0 0 Z " fill="#DBDAC9" transform="translate(397,156)"/>
<path d="M0 0 C2.97 0.33 5.94 0.66 9 1 C8.67 1.99 8.34 2.98 8 4 C2.25 3.125 2.25 3.125 0 2 C0 1.34 0 0.68 0 0 Z " fill="#D0C8B4" transform="translate(297,197)"/>
<path d="M0 0 C0.99 0 1.98 0 3 0 C3.33 2.31 3.66 4.62 4 7 C3.01 7.66 2.02 8.32 1 9 C0.67 6.03 0.34 3.06 0 0 Z " fill="#E2E3D5" transform="translate(393,149)"/>
<path d="M0 0 C3.96 0 7.92 0 12 0 C12 0.66 12 1.32 12 2 C8.04 2 4.08 2 0 2 C0 1.34 0 0.68 0 0 Z " fill="#E3ECDD" transform="translate(233,274)"/>
<path d="M0 0 C3.3 0 6.6 0 10 0 C10 1.32 10 2.64 10 4 C6.7 3.01 3.4 2.02 0 1 C0 0.67 0 0.34 0 0 Z " fill="#E5ECE2" transform="translate(446,234)"/>
<path d="M0 0 C-1.32 1.32 -2.64 2.64 -4 4 C-4.33 3.34 -4.66 2.68 -5 2 C-6.98 2.33 -8.96 2.66 -11 3 C-4.23255814 -1.51162791 -4.23255814 -1.51162791 0 0 Z " fill="#D2CEAD" transform="translate(363,191)"/>
<path d="M0 0 C0.515625 0.37125 1.03125 0.7425 1.5625 1.125 C-0.75 2.6875 -0.75 2.6875 -3.4375 4.125 C-4.4275 3.795 -5.4175 3.465 -6.4375 3.125 C-6.1075 2.795 -5.7775 2.465 -5.4375 2.125 C-6.7575 1.795 -8.0775 1.465 -9.4375 1.125 C-3.0375 -1.09038462 -3.0375 -1.09038462 0 0 Z " fill="#E3DBC9" transform="translate(389.4375,161.875)"/>
<path d="M0 0 C3.48749314 2.78999451 6.50157221 5.25235831 9 9 C8.67 9.66 8.34 10.32 8 11 C7.443125 10.278125 6.88625 9.55625 6.3125 8.8125 C4.02090666 6.02542701 1.58540143 3.51358472 -1 1 C-0.67 0.67 -0.34 0.34 0 0 Z " fill="#CAC9B8" transform="translate(371,101)"/>
<path d="M0 0 C0.33 0 0.66 0 1 0 C1.33 3.3 1.66 6.6 2 10 C1.01 10 0.02 10 -1 10 C-1.02689216 8.52093108 -1.04634621 7.04172517 -1.0625 5.5625 C-1.07410156 4.73878906 -1.08570313 3.91507813 -1.09765625 3.06640625 C-1 1 -1 1 0 0 Z " fill="#F7FAF1" transform="translate(202,248)"/>
<path d="M0 0 C5.625 -0.25 5.625 -0.25 9 2 C9 2.66 9 3.32 9 4 C6.36 3.67 3.72 3.34 1 3 C0.67 2.01 0.34 1.02 0 0 Z " fill="#CDCCBA" transform="translate(307,205)"/>
<path d="M0 0 C2 1 2 1 3 3 C0.04335481 4.4783226 -2.74229737 4.06032783 -6 4 C-3.94766315 1.7522025 -2.99332739 0.9977758 0 0 Z " fill="#CCC9B5" transform="translate(371,178)"/>
<path d="M0 0 C0.33 0 0.66 0 1 0 C1.33 5.61 1.66 11.22 2 17 C1.01 17 0.02 17 -1 17 C-0.67 11.39 -0.34 5.78 0 0 Z " fill="#F4F7EF" transform="translate(382,241)"/>
<path d="M0 0 C-0.98093954 2.45234885 -1.68703828 3.7809268 -3.875 5.3125 C-6.37345514 6.12082372 -7.52928976 5.71847013 -10 5 C-8.71186658 4.16121545 -7.41936744 3.32913217 -6.125 2.5 C-5.40570313 2.0359375 -4.68640625 1.571875 -3.9453125 1.09375 C-2 0 -2 0 0 0 Z " fill="#DCDDCF" transform="translate(371,195)"/>
<path d="M0 0 C1.875 1.25 1.875 1.25 2.875 4.25 C0.52328869 3.65138258 -1.8109378 2.98075648 -4.125 2.25 C-4.455 1.59 -4.785 0.93 -5.125 0.25 C-2.125 -0.75 -2.125 -0.75 0 0 Z " fill="#C4BAA7" transform="translate(265.125,169.75)"/>
<path d="M0 0 C0 3.20395416 -0.74335022 5.09399739 -2 8 C-1.34 8.33 -0.68 8.66 0 9 C-1.32 8.67 -2.64 8.34 -4 8 C-3.6875 5.125 -3.6875 5.125 -3 2 C-2.01 1.34 -1.02 0.68 0 0 Z " fill="#E6E6D3" transform="translate(257,154)"/>
<path d="M0 0 C0.33 0 0.66 0 1 0 C0.67 4.29 0.34 8.58 0 13 C-0.33 13 -0.66 13 -1 13 C-1.33 9.37 -1.66 5.74 -2 2 C-1.34 2 -0.68 2 0 2 C0 1.34 0 0.68 0 0 Z " fill="#D9D9C9" transform="translate(264,141)"/>
<path d="M0 0 C2.64 0 5.28 0 8 0 C8 0.66 8 1.32 8 2 C2.25 3.125 2.25 3.125 0 2 C0 1.34 0 0.68 0 0 Z " fill="#F3FDF0" transform="translate(350,115)"/>
<path d="M0 0 C3.39417765 3.12621626 5.6062718 5.56541027 7 10 C6.34 10 5.68 10 5 10 C3.7109375 8.57421875 3.7109375 8.57421875 2.375 6.6875 C1.92898438 6.07261719 1.48296875 5.45773438 1.0234375 4.82421875 C0 3 0 3 0 0 Z " fill="#ABAA94" transform="translate(374,106)"/>
<path d="M0 0 C2.97 0.33 5.94 0.66 9 1 C8.34 1.66 7.68 2.32 7 3 C4.27130593 2.96712417 1.7033382 2.43602229 -1 2 C-0.67 1.34 -0.34 0.68 0 0 Z " fill="#C3BDAA" transform="translate(306,199)"/>
<path d="M0 0 C0 3 0 3 -2.5 5.6875 C-3.325 6.450625 -4.15 7.21375 -5 8 C-5.99 7.67 -6.98 7.34 -8 7 C-5.36 4.69 -2.72 2.38 0 0 Z " fill="#DDDECD" transform="translate(381,186)"/>
<path d="M0 0 C0.33 0.99 0.66 1.98 1 3 C0.67 3.33 0.34 3.66 0 4 C-2.33944736 3.71269945 -4.6739143 3.38063221 -7 3 C-4.38058783 1.25372522 -2.96175123 0.61277612 0 0 Z " fill="#C5C3B0" transform="translate(365,185)"/>
<path d="M0 0 C0.66 0.66 1.32 1.32 2 2 C0.73581754 2.69965443 -0.53665402 3.38434763 -1.8125 4.0625 C-2.52019531 4.44535156 -3.22789062 4.82820312 -3.95703125 5.22265625 C-6 6 -6 6 -9 5 C-6.03 3.35 -3.06 1.7 0 0 Z " fill="#DED9C4" transform="translate(384,168)"/>
<path d="M0 0 C0.66 0 1.32 0 2 0 C1.67 1.98 1.34 3.96 1 6 C0.01 6 -0.98 6 -2 6 C-1.125 1.125 -1.125 1.125 0 0 Z " fill="#CCC7B0" transform="translate(257,156)"/>
<path d="M0 0 C2.64 0.33 5.28 0.66 8 1 C8 1.99 8 2.98 8 4 C6.68 3.67 5.36 3.34 4 3 C3.67 3.66 3.34 4.32 3 5 C2.67 4.01 2.34 3.02 2 2 C1.34 1.34 0.68 0.68 0 0 Z " fill="#C4C3B2" transform="translate(350,87)"/>
<path d="M0 0 C-2.17424117 2.50037734 -3.73045798 3.43628586 -7 4 C-7 3.01 -7 2.02 -7 1 C-3.375 -1.125 -3.375 -1.125 0 0 Z " fill="#F0F6EA" transform="translate(259,255)"/>
<path d="M0 0 C0.33 0.66 0.66 1.32 1 2 C1.99 2.66 2.98 3.32 4 4 C2.35 4.33 0.7 4.66 -1 5 C-1.99 3.68 -2.98 2.36 -4 1 C-2 0 -2 0 0 0 Z " fill="#D1C9AA" transform="translate(291,181)"/>
<path d="M0 0 C0.66 0.66 1.32 1.32 2 2 C-0.64 2.33 -3.28 2.66 -6 3 C-6 2.01 -6 1.02 -6 0 C-3 -1 -3 -1 0 0 Z " fill="#C0BAA8" transform="translate(366,181)"/>
<path d="M0 0 C-0.625 1.9375 -0.625 1.9375 -2 4 C-5.125 4.75 -5.125 4.75 -8 5 C-8 4.34 -8 3.68 -8 3 C-5.09451118 0.95830515 -3.59857954 0 0 0 Z " fill="#E0E7DA" transform="translate(334,149)"/>
<path d="M0 0 C2.31 0 4.62 0 7 0 C4.73814546 2.26185454 3.03016439 3.03921617 0 4 C-0.99 3.67 -1.98 3.34 -3 3 C-2.34 3 -1.68 3 -1 3 C-0.67 2.01 -0.34 1.02 0 0 Z " fill="#DFE9DB" transform="translate(321,130)"/>
<path d="M0 0 C0.99 0 1.98 0 3 0 C2.8125 1.875 2.8125 1.875 2 4 C-0.5625 5.25 -0.5625 5.25 -3 6 C-2 4 -1 2 0 0 Z " fill="#EFF6EB" transform="translate(271,105)"/>
<path d="M0 0 C-0.33 1.32 -0.66 2.64 -1 4 C-3.97 3.505 -3.97 3.505 -7 3 C-2.5 0 -2.5 0 0 0 Z " fill="#DAE3D5" transform="translate(308,276)"/>
<path d="M0 0 C1.98 0 3.96 0 6 0 C5.54625 0.433125 5.0925 0.86625 4.625 1.3125 C2.79975666 3.10798342 2.79975666 3.10798342 1 6 C0.67 4.02 0.34 2.04 0 0 Z " fill="#F2F7F1" transform="translate(305,234)"/>
<path d="M0 0 C-0.33 1.32 -0.66 2.64 -1 4 C-3.475 3.01 -3.475 3.01 -6 2 C-6 1.34 -6 0.68 -6 0 C-3 -1 -3 -1 0 0 Z " fill="#E2E5DC" transform="translate(225,234)"/>
<path d="M0 0 C-2 2 -2 2 -5.125 2.125 C-6.548125 2.063125 -6.548125 2.063125 -8 2 C-8 1.34 -8 0.68 -8 0 C-5.13822943 -1.43088528 -3.06624227 -0.59991697 0 0 Z " fill="#C3BDAA" transform="translate(314,193)"/>
<path d="M0 0 C0.66 1.32 1.32 2.64 2 4 C0.68 4 -0.64 4 -2 4 C-2 3.34 -2 2.68 -2 2 C-3.65 2 -5.3 2 -7 2 C-4 0 -4 0 0 0 Z " fill="#E4E5DD" transform="translate(349,81)"/>
<path d="M0 0 C1.32 0 2.64 0 4 0 C3.67 1.32 3.34 2.64 3 4 C2.01 3.67 1.02 3.34 0 3 C0 2.01 0 1.02 0 0 Z " fill="#EFF8EC" transform="translate(356,123)"/>
</svg>
